<?xml version="1.0" encoding="UTF-8"?>
<svg width="3180.8" height="3180.8" viewBox="0 0 3180.7585 1912.0426" xmlns="http://www.w3.org/2000/svg">
 <defs>
  <clipPath id="a">
   <path d="m54.025 157.19h494.35v297.16h-494.35v-297.16z"/>
  </clipPath>
 </defs>
 <g transform="translate(-31.289 2447.5)">
  <path d="m31.289-2447.5h3180.8v1912h-3180.8v-1912z" fill="#fff"/>
  <g transform="matrix(6.4343 0 0 6.4343 -316.32 -3458.8)" clip-path="url(#a)" fill="none" stroke-width=".5">
   <path d="m54.95 158.08h98.571v98.571h-98.571v-98.571z" stroke="#b0b0b0" stroke-linecap="square"/>
   <path d="m54.425 160.68 0.0017-3.0804h3.284" stroke="#000"/>
   <path d="m153.52 158.08h98.571v98.571h-98.571v-98.571z" stroke="#b0b0b0" stroke-linecap="square"/>
   <path d="m151.61 157.57h3.8441-3.8441zm1.9442 0.1875v2.2803-2.2803z" stroke="#000"/>
   <path d="m252.01 158.08h98.571v98.571h-98.571v-98.571z" stroke="#b0b0b0" stroke-linecap="square"/>
   <path d="m250.09 157.57h3.8441-3.8441zm1.9442 0.1875v2.2803-2.2803z" stroke="#000"/>
   <path d="m350.58 158.08h98.571v98.571h-98.571v-98.571z" stroke="#b0b0b0" stroke-linecap="square"/>
   <path d="m348.67 157.57h3.8441-3.8441zm1.9442 0.1875v2.2803-2.2803z" stroke="#000"/>
   <path d="m449.16 158.08h98.571v98.571h-98.571v-98.571z" stroke="#b0b0b0" stroke-linecap="square"/>
   <path d="m447.24 157.57h3.8441-3.8441zm1.9442 0.1875v2.2803-2.2803z" stroke="#000"/>
   <path d="m548.21 160.68-2e-3 -3.0804h-3.284" stroke="#000"/>
   <path d="m54.446 258.6v-3.8441 3.8441zm0.1875-1.9442h2.2803-2.2803z" stroke="#000"/>
   <path d="m548.22 258.6v-3.8441 3.8441zm-0.1875-1.9442h-2.2803 2.2803z" stroke="#000"/>
   <path d="m448.41 256.66h3.125m-2.3708 1.9451v-3.8441 3.8441zm-0.1875-1.9442h-2.2803 2.2803z" stroke="#000"/>
   <path d="m349.82 256.66h3.125m-2.3708 1.9451v-3.8441 3.8441zm-0.1875-1.9442h-2.2803 2.2803z" stroke="#000"/>
   <path d="m251.29 256.66h3.125m-2.3708 1.9451v-3.8441 3.8441zm-0.1875-1.9442h-2.2803 2.2803z" stroke="#000"/>
   <path d="m152.77 256.66h3.125m-2.3708 1.9451v-3.8441 3.8441zm-0.1875-1.9442h-2.2803 2.2803z" stroke="#000"/>
   <g transform="matrix(1 0 0 -1 0 513.47)">
    <path d="m54.95 158.08h98.571v98.571h-98.571v-98.571z" stroke="#b0b0b0" stroke-linecap="square"/>
    <path d="m153.52 158.08h98.571v98.571h-98.571v-98.571z" stroke="#b0b0b0" stroke-linecap="square"/>
    <path d="m252.01 158.08h98.571v98.571h-98.571v-98.571z" stroke="#b0b0b0" stroke-linecap="square"/>
    <path d="m350.58 158.08h98.571v98.571h-98.571v-98.571z" stroke="#b0b0b0" stroke-linecap="square"/>
    <path d="m449.16 158.08h98.571v98.571h-98.571v-98.571z" stroke="#b0b0b0" stroke-linecap="square"/>
    <path d="m54.446 258.6v-3.8441 3.8441zm0.1875-1.9442h2.2803-2.2803z" stroke="#000"/>
    <path d="m548.22 258.6v-3.8441 3.8441zm-0.1875-1.9442h-2.2803 2.2803z" stroke="#000"/>
    <path d="m448.41 256.66h3.125m-2.3708 1.9451v-3.8441 3.8441zm-0.1875-1.9442h-2.2803 2.2803z" stroke="#000"/>
    <path d="m349.82 256.66h3.125m-2.3708 1.9451v-3.8441 3.8441zm-0.1875-1.9442h-2.2803 2.2803z" stroke="#000"/>
    <path d="m251.29 256.66h3.125m-2.3708 1.9451v-3.8441 3.8441zm-0.1875-1.9442h-2.2803 2.2803z" stroke="#000"/>
    <path d="m152.77 256.66h3.125m-2.3708 1.9451v-3.8441 3.8441zm-0.1875-1.9442h-2.2803 2.2803z" stroke="#000"/>
   </g>
   <g transform="matrix(1 0 0 -1 0 612.04)">
    <path d="m54.95 158.08h98.571v98.571h-98.571v-98.571z" stroke="#b0b0b0" stroke-linecap="square"/>
    <path d="m153.52 158.08h98.571v98.571h-98.571v-98.571z" stroke="#b0b0b0" stroke-linecap="square"/>
    <path d="m252.01 158.08h98.571v98.571h-98.571v-98.571z" stroke="#b0b0b0" stroke-linecap="square"/>
    <path d="m350.58 158.08h98.571v98.571h-98.571v-98.571z" stroke="#b0b0b0" stroke-linecap="square"/>
    <path d="m449.16 158.08h98.571v98.571h-98.571v-98.571z" stroke="#b0b0b0" stroke-linecap="square"/>
    <path d="m54.446 258.6v-3.8441 3.8441zm0.1875-1.9442h2.2803-2.2803z" stroke="#000"/>
    <path d="m548.22 258.6v-3.8441 3.8441zm-0.1875-1.9442h-2.2803 2.2803z" stroke="#000"/>
    <path d="m448.41 256.66h3.125m-2.3708 1.9451v-3.8441 3.8441zm-0.1875-1.9442h-2.2803 2.2803z" stroke="#000"/>
    <path d="m349.82 256.66h3.125m-2.3708 1.9451v-3.8441 3.8441zm-0.1875-1.9442h-2.2803 2.2803z" stroke="#000"/>
    <path d="m251.29 256.66h3.125m-2.3708 1.9451v-3.8441 3.8441zm-0.1875-1.9442h-2.2803 2.2803z" stroke="#000"/>
    <path d="m152.77 256.66h3.125m-2.3708 1.9451v-3.8441 3.8441zm-0.1875-1.9442h-2.2803 2.2803z" stroke="#000"/>
   </g>
   <g transform="matrix(1 0 0 -1 0 710.63)">
    <path d="m54.95 158.08h98.571v98.571h-98.571v-98.571z" stroke="#b0b0b0" stroke-linecap="square"/>
    <path d="m153.52 158.08h98.571v98.571h-98.571v-98.571z" stroke="#b0b0b0" stroke-linecap="square"/>
    <path d="m252.01 158.08h98.571v98.571h-98.571v-98.571z" stroke="#b0b0b0" stroke-linecap="square"/>
    <path d="m350.58 158.08h98.571v98.571h-98.571v-98.571z" stroke="#b0b0b0" stroke-linecap="square"/>
    <path d="m449.16 158.08h98.571v98.571h-98.571v-98.571z" stroke="#b0b0b0" stroke-linecap="square"/>
    <path d="m54.446 258.6v-3.8441 3.8441zm0.1875-1.9442h2.2803-2.2803z" stroke="#000"/>
    <path d="m548.22 258.6v-3.8441 3.8441zm-0.1875-1.9442h-2.2803 2.2803z" stroke="#000"/>
    <path d="m448.41 256.66h3.125m-2.3708 1.9451v-3.8441 3.8441zm-0.1875-1.9442h-2.2803 2.2803z" stroke="#000"/>
    <path d="m349.82 256.66h3.125m-2.3708 1.9451v-3.8441 3.8441zm-0.1875-1.9442h-2.2803 2.2803z" stroke="#000"/>
    <path d="m251.29 256.66h3.125m-2.3708 1.9451v-3.8441 3.8441zm-0.1875-1.9442h-2.2803 2.2803z" stroke="#000"/>
    <path d="m152.77 256.66h3.125m-2.3708 1.9451v-3.8441 3.8441zm-0.1875-1.9442h-2.2803 2.2803z" stroke="#000"/>
   </g>
   <g transform="matrix(1 0 0 -1 0 809.21)" stroke="#000">
    <path d="m54.425 259.21 0.0017-3.0804h3.284"/>
    <path d="m151.61 256.1h3.8441-3.8441zm1.9442 0.1875v2.2803-2.2803z"/>
    <path d="m250.09 256.1h3.8441-3.8441zm1.9442 0.1875v2.2803-2.2803z"/>
    <path d="m348.67 256.1h3.8441-3.8441zm1.9442 0.1875v2.2803-2.2803z"/>
    <path d="m447.24 256.1h3.8441-3.8441zm1.9442 0.1875v2.2803-2.2803z"/>
    <path d="m548.21 259.21-2e-3 -3.0804h-3.284"/>
   </g>
  </g>
  <path d="m1034.4-2313.8s-11.522-23.621-28.806-17.86-17.86 21.892-17.86 21.892-21.316-0.5762-14.403 18.436 13.827-11.522 13.827-11.522l-2.3044 24.773s0.57614-5.185 3.4567-8.0656 4.0328 15.555-5.185 26.501-1.7284 33.415 5.7611 66.829-4.0988 45.24-7.4895 55.307c-5.6214 16.69 0 25.349 5.7611 53.003s-25.925 97.364-25.925 97.364l10.946 15.555 5.7612-11.522 5.185 0.5761s12.098 20.164 8.6417 65.101c0 0 16.995 0.2881 22.468 2.0164s27.654 1.7284 30.822-0.2881 8.3537-8.9298 4.0328-10.658-33.127-5.185-36.295-15.555-3.4568-23.909-2.8806-28.806 21.903-67.279 23.533-138.98c0 0-0.8147-15.48 3.259-27.702s4.8885-18.739 3.259-30.96 0.8148-21.184 0.8148-21.184 21.184 16.295 21.184-11.406 5.9069-36.46 2.4443-38.701-4.4811-6.518-4.6849-7.5364-2.0368-1.0184-3.0553-2.6479-2.0369-3.0554-3.0553-2.0369-4.2775 2.6479-4.2775 3.87-0.4071 3.8701-0.8147 5.0922-1.2221 2.6479-1.0185 4.4812 0.6111 10.184-0.4075 11.203-2.648 2.6479-2.648 3.87-2.8516 2.2406-2.0368 1.0185 1.4257-6.7217-0.6111-8.9623-2.8516-5.0922-3.4626-1.4258-1.0185 9.777-1.0185 9.777-24.646-23.424-25.461-31.164-0.4075-14.054 0.6111-14.666 11.61 2.0369 14.666-6.3143 5.2959-8.3512 7.1291-8.9623-2.037-6.7216-1.8332-9.5733 4.6848-16.702 1.9705-20.17z" fill="#003466"/>
  <path d="m1161.1-1631.9c-0.5906 0.061-1.1866 0.2118-1.8646 0.5086-5.4242 2.3729-15.256 0-13.561 7.4583s6.4413 12.204 2.0341 14.917c0 0-6.4414 3.3902-18.646 3.0512s-43.733-4.7463-59.667 3.7291-30.85 23.053-45.428 24.07-30.172-15.256-74.244 20.002-43.055 21.358-49.496 24.409-1.695 8.4754-17.29 10.51-14.239 2.712-22.375 0-22.375 0.3391-36.275 15.934-43.733 27.799-49.157 28.477-8.1364-4.4073-11.527 2.373-2.0341 8.8145-2.0341 8.8145-10.848-1.6951-12.544 4.4073 14.578 22.375 14.578 29.494-3.7292 17.29 8.1364 17.968 18.985-0.3391 20.341-1.0171 3.3902-10.17-1.017-8.4753c-4.4072 1.6949-8.8144 3.3901-9.4924-0.6781s-7.1193-4.7462 2.0341-4.7462 17.629 5.7632 17.29 2.0341-3.7292-6.4413-7.7974-8.4754-5.7633-2.0341-4.7462-8.4754 0-15.595 4.7462-15.934 39.665-9.1534 39.665-9.1534 12.544 44.411 31.189 48.479 4.4073-30.172 16.951-38.648 39.665-25.087 44.75-28.138 58.311-18.985 63.735-26.104 12.883-10.848 21.019-10.848 42.038 0 48.479-6.4413 12.205-12.883 17.629-10.17 9.1533-1.6952 8.4753 9.1533-2.0341 32.206-2.0341 36.275-4.0682 8.1364-3.0511 17.968 1.356 21.697 2.3731 27.46 5.7632 18.307 12.205 18.307h6.7802s0 7.1193 0.6781 9.1534-1.6951 11.188 0.3391 12.205 27.799 1.6951 32.206 3.7291 10.17-2.3731 11.527-2.3731 12.544-2.7121 7.7973-4.4072-4.7462-3.0512-7.4583-3.3901c-1.8173-2.9268-2.3345-3.264-6.7803-2.3732-2.0342 1.017-14.578 0.6781-16.273-0.6779s-8.4753-1.3562-10.509-2.3732 0.339-1.6951 0.6779-4.7462 3.0512-5.0853 3.0512-5.0853 1.0171-2.0341 5.0852-1.695 12.544-1.017 12.544-1.017 2.034-5.0854-5.0854-5.7634-11.865 1.6951-11.526-2.373 11.188-35.936 10.848-63.396 3.0511-33.902 5.0852-38.987 4.0681-22.714 0.6781-30.511c0 0 6.4412-2.7122 10.17-1.017s1.356 5.4242 2.3731 6.7802 10.51 1.6952 14.578 1.6952 8.4754 0.6779 9.8315 1.695 4.7462 1.0171 6.7802-2.0341 4.4073-5.4242 9.4924-6.1023 14.239-2.034 16.951-9.1534 9.4925-26.443 0.3391-34.58-21.697-8.8145-29.833-8.1363c-7.1193 0.5932-9.5957-3.9907-13.73-3.5597zm-57.294 108.57c0.8898-0.413 1.7797 2.2884 1.5255 7.8821-0.3391 7.4585-2.3732 21.019-1.6951 31.868s-2.3732 13.222-1.6951 21.019-0.6781 19.324-1.017 18.307c0 0-5.7633 5.7632-5.4243-7.1194s3.7292-31.867 4.0682-41.36 2.3731-25.765 3.3901-29.155c0.2541-0.8475 0.5509-1.3031 0.8477-1.4409z" fill="#003466"/>
  <path d="m241.55-705.02s-7.504 7.2452 18.631-16.561 44.248-48.129 46.576-59.514 3.8815-17.337 19.407-28.205 4.1401-34.674 1.0351-43.471-6.7277-23.288-5.6927-25.876 0.79506-14.257-0.66868-15.903-7.6848-8.9655-7.6848-4.7572-2.0126 5.855 0.36606 6.9528 4.3913 3.2935 4.5742 4.9402 0.73187 10.612-4.5742 10.246-8.0507-1.6468-8.0507-8.0508 3.2935-9.8803 0.36611-12.991-24.884-7.6848-18.297-30.739 26.531-16.101 29.458-16.467 3.1105-2.1956 5.6721-2.1956 2.3786 1.2808 5.1231 3.6594 6.2209 4.0253 7.8676 3.1105 1.4638-32.386 6.038-49.036-0.91478-21.224-3.6593-24.152-8.5996-7.5018-8.2337-14.638 6.221 8.0506 8.7825 6.7699 0.91488-8.5996 0.36607-10.612-3.2936-13.357-4.5742-14.272 2.0127-3.2934 3.4765-0.7319 4.5742 10.429 6.4039 9.5144 1.0978-5.3061 1.2807-8.0506-1.0977-14.455-1.4637-17.382 2.0127-6.7699 2.7445-3.8424 1.6467 11.71 2.5616 13.723 1.4637 3.6594 1.4637 5.3061 2.0126 2.0127 1.6468-0.5489-0.18195-19.578-0.18195-19.578 4.5742-7.6848 4.9402-1.4638-0.73195 11.893-0.3662 13.174-0.73195 6.5869 0 7.3187 2.3786-0.3662 3.1105-1.4637-0.18195-10.063 1.4638-11.161 4.3912-1.4637 3.8422 1.0978-1.4636 3.4765-1.0978 5.855-0.91477 4.2084 0.3662 4.5743 1.8298 3.1105 1.4638 5.3061-1.8297 4.2083-1.6468 6.4039 0.54907 6.221-0.36621 8.7826c-0.91477 2.5616-3.6592 5.672-3.8422 9.1485s-0.3662 20.127-0.91491 25.25-1.2808 33.666-1.0978 36.96-0.36621 19.395-0.73195 25.433-2.3785 20.31-2.1955 24.884-0.18195 8.2336 1.2808 10.612 7.8676 8.5996 10.246 11.71 9.8805 7.5017 10.063 23.603 1.0977 18.114 1.0977 22.139 3.6595 34.032 0.54907 43.364c0 0-4.0261 2.9275-1.2816 4.5742s62.758 32.752 63.49 44.462 13.906 14.638 13.906 29.275c0 0-14.638 6.5869-13.174 11.71s-0.73195 49.036 5.1232 53.427c5.855 4.3913 18.297 8.0506 24.152 9.5144 5.8552 1.4638 13.906 5.1232 9.5144 6.5869s-8.0507 4.3913-13.906 2.1957c-5.855-2.1957-13.906-8.7826-19.029-6.587s-16.833 4.3913-19.029 1.4638 1.4638-8.0507 1.4638-19.761-5.123-30.007-8.0508-32.203-10.978-24.884-9.5142-30.739-40.985-25.616-51.963-30.007-12.442-10.246-21.225-1.4637-19.029 16.833-27.811 38.79-30.739 46.108-30.739 46.108l-21.956-1.4637s4.3913-19.761 7.3188-21.956-2.1956-5.8551-2.1956-5.8551-11.71 15.369-24.884 24.884-13.174 19.761-8.7825 25.616 16.101 12.442 8.0507 13.906-10.246-2.1956-10.246-2.1956l-6.5869 0.7319s-4.3913-5.1231-7.3188-7.3188-6.587-6.5869-6.587-6.5869-2.1955-9.5144 5.855-13.906 27.08-40.253 28.482-41.378z" fill="#003466"/>
  <path d="m475.24-1694.2c-0.53364 0.028-1.2687 0.1461-2.3911 0.4393-4.4893 1.1711-5.4652 0.7808-6.4412 2.3422s-4.0989 2.7327-5.0749 5.2701-2.5375 5.8557-3.7085 7.4172-3.5135 6.2461-4.6846 7.4173 0.19481 2.5374-2.3423 3.5134-2.5374 1.9519-6.0508 1.9519-3.1231-2.5375-7.8076 1.9519-4.4894 5.6605-8.0028 6.6364-27.131 14.834-36.305 21.276-8.9787 7.8075-14.054 9.174-13.663 8.5882-20.885 9.369-20.69 4.6846-24.399 8.0028-4.099 6.4412-5.6605 5.8556-3.3182 2.1471-4.2942-2.5374 2.1471-4.4894-3.3182-5.6605-5.2701 1.1711-4.8797-3.7086-0.39055-24.984-15.03-25.18c-14.639-0.1948-14.054-0.1948-15.615 4.2943 0 0-1.3663-0.7808-4.099-0.1949s-4.2942-1.5614-5.8556 1.7568-6.0509 5.4653-6.4412 7.8076-3.9038 7.0268-3.3182 11.907 2.5374 4.4892 2.3422 8.0026-0.97593 6.8317-2.1471 8.0028-2.1471 3.5134 0.78077 4.2943 3.9038-0.3906 4.0989 1.9518-1.3663 3.9038 0.78077 6.0509-0.78077 6.0508 7.222 4.4893 8.5883-4.6845 11.126-4.4893c2.5375 0.1948 5.2702 5.8556 6.6365 7.6123s1.1711 5.6605 1.1711 8.0028-0.19481 2.5374-0.19481 2.5374-1.1712-1.3663-8.198-0.7807-8.9787-1.5615-12.492 1.3663-17.567 1.3663-17.567 1.3663-56.019-4.0989-61.289-5.2701-8.0028-1.3662-15.03-2.147-10.345-0.5857-17.177-0.5857-7.222-0.5855-11.907 0.5857-10.345 1.7567-11.907 1.7567-1.3663 4.099 2.3423 4.4894 6.2461-0.3901 9.3691 1.171 10.345 2.3423 13.273 2.5375c2.9278 0.1948 7.6124 0.7808 12.882-0.1948s4.099 0.5856 9.3691 1.7567 16.981 5.0749 45.869 7.0268c0 0 16.591 6.2461 23.813 7.4172s8.7835 4.099 15.03 3.9039 19.129 0.7807 20.69 1.3662 3.7086 20.885 26.351 27.912 74.953 34.353 74.953 40.599 1.5616 37.476 7.8076 60.118 0.7807 34.353 2.3423 41.38 0.78074 17.177 0 22.642-7.0268 49.968-12.492 53.091c0 0-25.765 12.492-32.011 14.054s-10.931 4.6846 0.7807 4.6846 24.984-5.4653 38.257-3.123 23.423 3.123 24.984 0-6.2461-12.492 0-11.711 16.396 0.7808 16.396 0.7808-2.3423-66.364-5.4653-89.787-0.7807-41.38 0.78079-53.872-3.9038-44.503-3.9038-56.995 3.9038-26.546-1.5615-27.326c0 0 18.738-11.711 26.546-24.984s22.642-26.546 28.107-31.23 20.3-15.615 10.15-36.696-11.711-22.642-14.054-31.23-2.3422-16.396-6.2461-18.738-10.15-2.3423-3.123-7.8076 16.396-11.907 15.03-14.834-0.78069-6.8316-6.246-7.222c-4.099-0.2931-4.0105-1.1162-5.6117-1.0247zm-29.181 37.964c0.26788-0.086 0.24399 0.049-0.14611 0.3418-1.5615 1.1711-0.39055 3.5135 0.39056 5.4654s5.4654 1.5614 5.8557 5.8556 9.3691 33.182 12.492 37.086 3.9038 6.2461 1.9519 7.4171-16.005 14.444-26.936 18.738-30.059 23.423-38.648 24.594-17.177 2.3422-20.3 1.5615-9.3691 3.123-15.225 2.3423-3.5134-3.9038-3.5134-3.9038-5.8558-8.5883-7.0269-14.834-1.9519-17.567-1.9519-17.567c2.3423-5.075 13.273-6.6364 18.348-8.9788s12.883-10.54 18.348-12.102 5.0749-7.0268 11.711-10.15 30.84-21.861 36.305-28.498c4.099-4.9773 7.5392-7.1121 8.3444-7.3683z" fill="#003466"/>
  <path d="m1628.3-1715.6c-11.575-0.018-17.814 2.3469-25.357 10.17-9.6557 10.013-13.947 11.801-14.662 20.742s-4.6491 22.888-4.6491 22.888l-0.7151 7.1523 2.5033 2.1457s0 4.2915 0.3575 6.7947 2.8609 11.802 4.2914 12.517 4.649-1.0729 5.3643 2.5034 2.1457 7.1523 2.5033 10.013 1.0729 3.2184 1.0729 6.7946 3.9338 6.0796 1.4304 15.378-11.444 20.027-14.305 22.888-5.0067 3.5762-6.7948 4.649-8.2252 3.2186-7.51 3.2186c0 0-6.7947 1.4305-14.305 1.7881s-8.9406-3.2185-16.093 3.5762-7.8676 7.51-10.729 14.305-12.874 28.252-16.45 41.841-7.1524 17.881-9.6557 23.603-7.1524 17.523-7.51 20.384-6.4371 27.894-1.4305 36.119 1.0729 11.444 18.238 5.7219 45.418-16.45 46.848-17.166 1.7881 8.5828 1.7881 11.086 0.7153 6.7948 0.7153 6.7948-1.7881 2.1457-0.7153 5.0066 0 6.4372 0 6.4372 0.3575 1.4305-0.3574 4.649c-0.7153 3.2186-2.1457 6.0795-4.2914 14.662s-5.722 6.4371-5.722 11.444-2.1457 13.59-1.788 17.166-2.5033 7.1523-3.2186 10.013-1.0729 6.4371-1.0729 6.4371-4.649 0.7152-6.7947 1.0729-6.4372-0.7153-10.371-0.3575-5.0067-1.788-7.1524-1.0728-4.2914 0-4.6491 2.1456 4.6491 1.7882 2.5034 3.2187-2.5034 1.0728-6.4372 1.0728-44.702 6.4371-51.497 18.954-8.5829 21.457-6.0795 26.821 6.7947 12.159 9.298 13.59 6.0796 4.2914 11.444 6.4371 5.7219 3.9338 11.801 3.5762 4.6491-1.0729 9.2981-0.3575 21.457 2.1457 30.04 0.7153 18.954-3.5762 23.603-5.0066 34.689-10.013 42.914-11.086 13.232-3.9338 13.232-3.9338 7.51-0.3574 13.947 1.7881 20.742 3.9339 24.676 4.6491 59.722 11.801 69.378 13.947 21.1 2.861 28.252 2.5033 38.623 6.7948 42.914 2.1457 6.7948-5.0066 12.874-7.1523 7.1524 1.7881 10.729-5.0067 8.5828-13.59 7.8676-18.238 3.5762-12.517-7.1523-20.742-31.828-19.669-38.623-20.742-9.2981-1.7881-9.2981-3.5763 2.8609-3.2185 1.4305-4.6491 0-3.2184-2.1458-3.5761-7.1523-0.3574-11.801-1.4304-7.1523-1.4305-9.6557-2.861-5.3643-3.2186-12.517-1.4305-20.742 9.298-22.888 6.7948-2.5034-6.7948-5.0067-11.444-5.0066-12.159-5.0066-15.02-2.861-12.517-2.1457-15.735-3.2186-7.51-7.1524-12.159-7.1524-7.8677-5.3643-8.9405 2.5034-2.5033 1.7881-7.1524 0.3575-6.0795 0.3575-11.444 0.7153-10.371 1.0729-12.874 1.0728-5.0066 1.0728-5.0066 15.378 13.232 49.709 19.311c0 0 8.9405 2.5033 13.232 4.2914s6.0795 5.3643 8.5828 3.9338 7.1524-11.086 8.2253-12.874-2.1457-20.384-3.2186-23.96-10.371-23.245-19.311-42.199-18.954-44.702-22.53-49.351-6.0796-14.305-15.735-17.523-17.881-2.861-22.172-2.5034-8.2252 1.7882-9.6557-2.1457-6.7948-7.5099-10.013-8.5828-15.378-10.371-15.378-13.947-1.7881-14.305-0.7152-15.735 6.0795-10.013 6.7948-16.808 6.7948-5.7219 6.7948-5.7219 2.8609-4.2914 3.5761-6.4372 2.5034-11.086 3.2186-12.517 1.7881-4.649-1.0729-7.1524 4.2915-13.947 2.861-20.027-9.2981-38.265-28.61-39.696c-4.2244-0.3129-7.8788-0.5081-11.12-0.514zm71.557 210.79c0 1.0729 1.7881 7.51 5.0067 13.59s8.9404 16.808 9.6557 20.384 7.1524 7.51 5.0066 7.51-10.371-1.0728-17.523-3.5762-12.874-3.2185-12.874-3.2185 0.3575-6.0795 1.0729-9.6558 0-9.298 0-12.159 1.4305-2.5033 4.2914-3.5762 5.3643-9.298 5.3643-9.298zm-150.92 8.5829s5.0066 2.8609 6.4371 5.0066 0.3575 8.9405 0.3575 11.801 2.1458 9.2981 1.0729 10.728-2.8609 3.2186-6.7948 3.9339-15.378 2.1457-15.378 2.1457l14.305-33.616z" fill="#003466" stroke="#000" stroke-width=".35762"/>
  <path d="m1792.4-2127.6s-20.351-13.656-39.095-17.137-25.974-4.5522-28.652-5.0877-25.171-7.4976-40.969-22.493-30.258-20.351-30.258-20.351-2.9457-3.7489-5.0878-4.2844-46.86-26.242-51.144-28.384-16.066-11.514-38.291-7.2298-34.542 9.6398-36.953 11.246-4.8198 2.9454-7.7654 6.6942-14.728 34.81-16.334 44.986-1.3389 20.618-1.6067 23.564 0.8033-1.0711 1.3389 4.8199 1.6065 29.99 10.711 49.806 13.924 27.313 13.924 27.313-1.3388-1.6066-5.3554-0.5355-7.2298 1.8744-10.711 1.8744-4.552 0.8033-9.9075-0.5355-2.4099-3.7488-71.495 4.0165c0 0-5.8911 0.8034-10.176 0.8034s-5.6231 1.6066-9.9075 1.6066-10.979 0.8033-15.531 1.3388-11.246 1.3389-12.585 1.6067-5.6233 5.6232-8.5688 6.1588-10.175 3.481-12.05 2.9454-2.6776-1.3388-5.3553 0-3.7488 2.1422-4.82 2.41-2.4099 3.481 2.1421 3.7488 14.46-1.8744 14.46-1.8744 2.1423 0 5.3555 1.3389 12.853-0.2679 15.799-1.3389 4.2844 0.2678 6.6943 0.8033 12.585-1.0711 14.727-0.8033 4.8199-0.2679 5.8909-1.0711 1.0711-2.6777 4.82-1.8744 20.351 2.6777 21.69 4.0166-15.263 3.2133-21.154 3.2133-6.4265-1.0712-13.924 0.5355-7.2298 2.6777-14.46 2.6777-11.246 0.2679-14.46 0.5355-4.82-2.9454-8.5688 0.2679-5.0878 5.0877-7.2298 5.891-14.995 4.5521-16.87 5.3555-2.6777 1.8744-1.071 2.4099-0.2678 2.6777-0.2678 2.6777l1.6065 0.8034c1.0712 0.5355 5.6233 0.2678 7.4976 1.3388s17.673 0.5355 20.351 0.8033 13.656-0.5355 17.405-0.8033 9.6397 0 10.979-0.8033 5.8908-5.891 11.782-4.5521 19.28 0.2679 23.564 1.8743 43.112 1.3389 57.036 0 15.263-0.8033 25.974-1.3388 61.052-2.1422 66.675-0.8033 17.137 0.2678 19.547-1.0711 0.2679-1.8744 5.0877-2.6778 8.5687 0 10.979-0.8033 6.1588-1.3388 7.4976-2.1422 2.6776-2.9454 2.6776-2.9454 3.4813-1.8744 6.9622-2.1422 3.7489-0.5355 5.0876-0.2678 10.443 4.8198 12.05 5.3554 4.0167 2.6777 7.2299 1.8744 10.711-1.0711 14.192 0.2678 10.175 0.5356 15.798 0 22.761 1.3389 24.367-28.384-20.351-31.597-25.974-34.275-9.9075-3.4811-11.782-3.7489-4.0164-1.6066-6.1587-0.8033-4.2845 2.4099-6.4265 0.8033-7.7654-2.9454-10.443-2.1421-10.979 2.9454-12.853 2.6777-2.9454 0.5355-4.8197 1.071-7.4976 1.6067-9.1044 2.1423-5.6233 2.1421-5.3555 12.585c0 0 0.6026 2.0753-0.4685 1.272s-1.6736-0.8703-1.6736-1.8075 2.3447-11.906-3.5251-26.675-6.2482-7.0057-13.065-15.526-13.822-4.7336-17.798-6.8164-4.7337-3.4081-6.4378-3.7868-3.9761-1.5148-3.9761-1.5148-3.0296-2.0828-3.5976-3.9762-3.2189-4.3549-3.9761-5.6803 4.5441-1.7041 3.9761-8.7099 0.1893 0 0.1893 0 3.2187 0 3.2187-3.5974-1.136-4.7336 1.7041-3.2189 11.55 7.0057 13.254 7.5737 2.4616 0.7574 4.7337 2.2721 8.8991 4.1656 11.171 5.491 17.988 6.059 20.449 6.8164 6.8164 0.9467 10.225 2.2721 7.9524 1.5148 9.8459 2.0828 13.633 1.5147 15.147 2.0828 21.206 4.7336 23.857 5.8696 4.923 2.6508 7.9525 3.4082 9.0885 1.7042 11.739 2.0828 7.3844-0.1893 8.3311 0.3786 5.1123 1.8935 10.982 1.3255 11.55 1.8934 14.012 2.8401 7.1951 2.2721 10.035 3.2188 27.266 11.929 49.419 17.42 26.319 9.8458 29.348 10.603 21.017 9.0885 26.508 16.852 8.1416 7.763 10.035 10.982 1.8935 5.4909 3.9761 6.8163 3.5976 4.923 4.923 5.6804 3.2189 3.4081 6.059 4.7335 9.2779 3.4082 10.793 3.9762 2.0827 0.9467 5.6803 0.5681 3.0296-0.9468 5.491-0.9468 5.6803-3.0294 2.0828-5.6803-5.1124-2.4614-7.5738-3.9761-1.5147-2.2722-3.4081-4.355-4.3551-2.8401-4.5444-6.0589-1.7041-5.491-2.6508-8.5205-2.6507-7.0057-3.5974-10.793-0.7574-11.361-0.7574-13.822 0.7574-12.875-6.059-17.609-6.2483-4.923-10.225-4.5443-7.195 1.3255-12.307 0.7575-21.017-4.355-27.644-7.9525-30.863-15.905-30.211-15.362z" fill="#003466"/>
  <path d="m2170.2543-1747.0284c-1.0513-.028-1.4547,1.554-1.4547,1.554s.089.4406.089,1.4988-.089,4.2321 0,5.9955 .4411,6.6126.6172,8.376 .2647,5.5546.2647,5.5546-1.3225.3529-1.2343-.088-.9699-6.9653-1.0581-7.6707-.6171-2.5569-.7053-3.0859-.7054-2.9977-.7935-3.4385 .529-3.9676-1.1462-5.0257-2.4688.9699-2.4688.9699 .5291,4.7611.5291,5.4664 .1755,2.6451 1.058,9.6986-1.4989,14.9005-1.4989,14.9005-1.6752.4406-1.4988-.3529-3.1539-7.5568-6.2711-9.6765-4.9843-.2486-4.4855.3744 4.9911,5.1097 6.2379,11.2195 2.613,7.7247 5.3563,11.3407 3.2483,7.8578 3.7471,9.8528-2.2523,26.6853-2.5018,28.5556-4.7329,25.0623-3.3614,33.7906 .3754,13.0922-1.2455,27.4314-7.8578,25.3154-7.8578,25.3154c-.023.046-2.8436,7.7148-3.8134,10.5362s-.6171,11.5501-.9698,13.1371-.7054,4.9374-1.587,10.1394-4.3204,11.7264-4.8493,13.1371-1.0581,3.2622-2.2924,4.8493-1.2343,1.058-3.9675,1.9397-6.0837-1.587-7.1418-2.0279-.5289-4.2321-.5289-8.0233-2.1161-4.3203-2.1161-4.3203-3.7913-.1764-4.6729-.1764-3.1742-.529-3.3504-1.1462-1.9397,0-1.9397,0-.8818.1764-1.1463-.3529-2.2041-.8817-2.2041-.8817-.2647.6172-1.058.9699-2.2924-.088-3.7031-.088-1.3226-.6172-2.9098-1.2344-5.29,2.8214-5.29,2.8214-.7054-.2646-1.1461-.4406-1.9398-.6172-2.9977-.7935-3.2624-.2647-4.144.1764-1.8515,1.4107-2.2042,1.4989-3.615.088-6.1718.1764-7.318,4.8493-9.4341,5.7309-2.3806,1.0581-5.0256,6.6127-2.8213,12.8726-2.3806,18.6917 8.4642,13.4898 8.7287,15.6059 7.0535,3.5267 7.5827,4.7611-4.2323,7.5824-4.673,8.0233-.3528,1.9397-.1755,2.6451-.9698,2.645-1.2343,4.5847-1.058,6.0837-1.4107,7.2299-.3529,7.1416 0,9.2576 2.5568,13.9307 2.8215,15.4296 2.9095,2.4687 1.4987,12.1672c-1.2182,8.3756 2.0281,16.1229 2.7113,17.9203-.436-2.2828-1.3888-13.9276-1.3888-14.5699 0-.7053 1.1463-2.4687 1.4108-.9698s.5289,4.2321.1755,7.0535 .7054,8.9931.7054,8.9931 .3547-6.4438.3859-8.4531c.1815,1.4542 1.0251,4.7501 1.0251,4.7501s.089-2.9096.089-3.2623 1.2342-1.1462 1.146.3529 .7054,3.1741.7054,3.1741 .3529-3.0859.3529-3.7031 1.4989-2.645 1.4107-.6171 1.1463,5.3782 1.1463,5.3782 .4406-4.9374.4406-6.0836 1.1463-.7935 1.3225.6172 .8819,3.7031 1.0581,2.3805 .9698-6.9653.9698-5.8191 3.1742,2.2042 2.8215,1.9397-3.7031-8.4642-2.2044-5.5546 6.9655,5.5546 6.172,5.0256-6.0837-8.2879-3.6149-5.2019 8.376,1.9397 5.5545,1.9397-5.6427-3.6149-5.6427-3.6149-.4283-1.7667-.518-2.094c.1604.43 2.365.7653 2.1049.419s-.5289-.6172-.6171-2.3806-1.0581-18.2509-.5289-11.1974 8.9931,12.2554 6.0836,9.9631-6.4363-17.2811-5.6429-15.6059 3.3504,3.8795 3.3504,3.8795-2.6451-4.3203-2.7331-5.2902-.4411-6.5244-.5291-7.5825c-.068-.8189-1.8626-5.3474-2.3916-6.6347 1.009,1.6384 8.1446,4.7502 6.0947,3.7252-1.4982-.7491-4.1643-4.771-5.3893-6.5796 1.6443,1.5351 5.8302,3.7582 5.8302,3.7582s-2.0279-1.4989-4.9374-4.5848-6.7008-16.0467-6.6128-18.5154 .7054-1.587 1.3225-1.6752 1.2345,1.2344 1.2345,1.587 1.6752-.5289 2.7331-.3528 3.3504.8817 5.202.1764 2.0279-1.3225 11.9027-1.058c9.875.2647 8.8169-9.963 8.8169-9.963s.5291-.2647 1.6752-.3529 2.9095-.8817 3.7913-1.2344c.7714-.3083 5.0579.7949 5.4665.9589 .9089.1084 5.9379.8574 6.6126,1.1572 .7934.3529 2.4686.9698 2.8213,1.7634s-.1755,2.5568.089,3.8794 2.0279,2.2042 2.2043,3.4385 .089,1.6752 1.0579,3.9676-.4407,8.7287-.6171,11.1975 1.4107,15.5176 1.4989,18.6035 5.1137,15.5177 6.4363,17.7219 1.9397,26.4506 1.4988,30.4182-3.0859,14.7241-3.2622,16.3993 .3529,11.9027.3529,13.2253-.7936,22.483-.9699,29.5365-2.9096,7.2298-3.703,8.5523-2.1161,1.5871-4.2323,2.2924-2.8212,1.2343-6.3481.9699-7.8469,2.4687-9.6985,2.3805-3.4386.088-4.4085.4406-3.9675,1.9398-5.2018,2.6451-4.4967,1.8516-6.5246,2.2924-1.1461.4406-1.6752,1.058-1.587.7054-3.3504,1.2344-.3529,1.3225-.3529,1.8515 4.5849.4411 5.9956.088 2.5568-.529 2.5568-.529-1.4107,1.058-3.5268,1.6752-.1755,2.2042 1.5872,2.5569 2.3806-.529 3.9675-.9698 2.2042-.9699 3.174-2.3806 1.7634-.8817 3.6151-1.2344 3.7031-.9698 4.8492-1.2344 4.3202-.088 4.9373-.088-1.146.9699-1.8514,1.2344-1.0581.9698-1.7634,2.4687 1.6752,2.2924 2.7332,2.2042 2.2042-.6172 2.9095-1.4989 9.5223-2.2042 9.9632-2.5568 2.2041-1.0581 3.3504-1.2344 2.4686-.088 5.6428-1.4989 2.9095-2.2042 3.2622-2.9977 1.1462-1.7634 1.3225-2.5569 1.2343-2.7332 2.2041-4.4966 3.6151-14.5478 3.8795-15.3413 2.6451-5.5546 4.144-12.6963 3.7911-22.483 4.5847-24.599 2.0279-8.9051 1.6752-11.9028 .1756-16.4875.2647-17.6337 .2642-9.6104.2642-9.6104 .2647-2.8213.1755-11.9027-1.587-14.8123-1.499-15.694-1.146-4.2321-.7934-6.5245 .6172-2.8214.6172-2.8214 2.9977.529 3.6149.529 5.1138.3529 8.0233.7053 8.0233-1.2343 10.0512-1.058 8.2878-2.8214 9.6985-3.174 1.0581-.8817 2.3806-1.4107 3.1742.1764 5.2019-.2647 .7936-.529 3.7031.1764 5.3783-.4406 5.3783-.4406c11.1974-4.0557 19.9261,4.3203 23.8055,9.4341s7.0535,4.2321 9.8749,5.9954 9.6986,12.5199 10.2275,14.4596 5.1138,2.2924 7.5826,5.2902 2.9977-2.4688 10.4039,4.9374 34.033,13.4016 37.3834,14.2833 6.7008.8817 11.2855,3.3504 6.8773,2.6451 13.7543,4.7611 9.6986,3.5268 16.752,5.1138 20.6756,11.7264 20.6756,11.7264 5.8632,4.144 17.0607,11.9909 44.3487,14.2834 46.9939,15.1651 9.963,2.5568 13.7543,3.6148 15.694,6.7009 18.0745,8.1115 6.5244,7.6707 7.4063,9.7867 2.2041,2.0279 3.0857,3.086 4.4084.088 5.8192.529 3.6149-.9699 5.4665-1.9398 2.645-1.5869 3.7911-2.8213 4.144-2.116 5.3783-2.7333 3.0859-4.4965 3.6151-4.9374 .8816-1.4107 2.3803-3.2622 .2647-2.5569.7054-3.2623 .6171.6172 1.8517.8817 2.9095-.3529 3.9675-.2646 .8816-.1765 1.058-5.1138-4.3202-5.5547-6.4363-5.9955-4.9374-2.0279-4.9374-2.0279c-7.4944-4.8493-18.6919-12.2554-19.309-12.6081s-2.3806-.8817-4.7609-2.2042-4.8494-2.8214-7.23-3.6149-15.9584-13.578-18.8681-16.0467-23.4529-20.3669-25.657-22.2185-6.3481-5.4664-13.9306-8.8168-22.2185-12.9608-23.7174-13.8425-7.8469-5.4664-8.9932-6.4363-2.8213-2.3805-5.3783-4.9374-25.3043-24.8636-32.2697-31.0354-23.7174-17.1928-24.1581-17.4574-.6173-1.4107-2.0279-2.116-1.8516.4406-1.8516.4406c-3.6149-2.2042-21.9539-8.1996-22.9237-8.5523s-2.9979-.8817-3.086-1.3225-.7053-.1765-3.6148-1.1462-11.1093-1.587-11.1093-1.587-10.0512,1.8515-20.3671,2.7332-29.6245-11.7265-30.947-12.3436-8.8169-5.0256-10.3157-5.6428-3.3504-1.7634-4.2322-2.6451-26.0097-6.5245-28.6547-7.4061c-2.645-.8817-6.5246-2.6451-10.5804-5.5546s-.5289-13.578.2647-16.9284 3.4384-19.6616 3.7029-20.9841 .4411-16.223.4411-18.4273 .6171-9.1695 1.0581-10.9329 .9698-3.1741.9698-3.1741c3.086-5.29 1.3225-10.1393 1.3225-10.9328s-.7934-9.7867-.7054-12.0792-.7053-24.07-.7933-25.7452-.6174-24.4226-.6174-25.8333 .3529-2.0279 3.0859-7.6707 2.5571-15.8704 2.5571-16.223-.089-.6172.089-1.4107 1.058-4.1439 1.1463-4.8493 .9698-4.9374 1.1462-6.6127-.7054-2.116-1.6752-2.4686-1.4989,1.8515-1.5872,2.645 .1756,3.2622-.4406,4.5848-1.3225,4.3202-1.8516,5.4664-.2647,1.1462-1.9397,1.1462-.9698-2.0279-.9698-2.0279v-1.7633c0-.6172-.1756-6.7008.089-8.0234s-.6173-5.1138-.7053-8.0233-1.1463-3.0859-2.1162-3.3504-1.4107,1.058-1.4107,1.6752 .4411,5.4664.2647,8.1997-.2647,8.6405-.2647,8.6405-.7934.2646-1.2343-.4407-.7936-7.9352-.8818-8.5523-.5289-6.3482-.6171-9.6104 0-3.1741-1.6752-4.3203c-.3143-.215-.595-.3138-.8377-.3198zm-41.1305,254.234c-.1604-.018-.2334-.014-.089.014 .1218.023.1466.014.089-.014zm-49.7492,86.8791c.041.2242.079.3951.1103.419 .048.037 0-.135-.1103-.419zm255.7329-39.1358c0,0 20.6993,7.9868 30.1757,14.4707s14.9648,10.7165 18.2068,10.9659 6.2374.5053 10.2276,3.7472 13.2149,14.2129 19.9482,15.9585 8.7333,4.7373 15.716,7.9793 14.2083,10.4754 19.6947,11.4729 13.4661,6.727 14.7131,6.9763 2.7466-.2453 6.2379,2.2483 5.9829,2.4975 7.2298,4.2432 .4963,3.9842-1.4988,2.9866-1.7395-3.2429-6.9765-2.7442-13.7222-4.4825-16.4653-6.9763-28.9283-15.2156-36.1601-18.9563-21.4441-8.9804-23.938-12.2223-3.738-6.2347-11.2193-10.7236-12.7153-5.4772-15.209-7.4722-25.9446-15.969-30.6828-21.954z" fill="#003466"/>
  <path d="m317.01696-2334.9169c0,0 1.4026-7.0127-4.4881-12.9033s-7.5737-9.8177-4.2076-16.5499 3.6466-18.5135 3.6466-21.3186 .8415-4.4881 1.4025-5.6101-.6311-5.7504 1.4025-5.4699 2.0338.6311 2.0338.6311-.2104-.9116-.1406-2.1739 .7714-4.3479 2.0336-3.5064 1.5428,2.1038 2.0338,3.857-.7714,3.4362.9115,2.8051 2.1039-1.122 2.2442-3.0856-2.0338-2.6648-1.2624-4.0673 1.1922-1.4727 2.3843-1.7532 1.4027-.4909 1.4027-.4909 .7012-3.5764 3.5764-2.8051 1.6129,1.8935 1.3325,3.7869-.7715,3.2258-.6313,5.1192-.9818,4.7687-.2105,6.2413-.2104,1.1221 1.1221,3.0856-.9117,3.9271-.4908,6.8724 1.3323,19.0745 1.1922,20.8978-.2808,15.7084-.4209,18.7238 .9819,15.2877 1.7532,18.6538 1.6831,5.9607 2.2441,8.9762 9.8178,34.5023 9.8879,38.9203 .7713,5.7504 1.9635,7.6438 6.9426,16.55 8.0645,22.5809 4.2778,14.4461 4.2077,16.9706 2.1039,16.3396 2.1039,19.2148 3.5764,20.9679 4.3478,24.4742 3.7868,17.4616 3.7167,22.2302-.3505,6.5919-.2104,7.2932 0,2.1038.3506,2.9453 2.6648,1.9636 3.6466,2.735 12.8331,11.3605 16.2694,14.4461 17.6719,21.2484 19.5653,23.7028 13.3241,16.7603 14.306,17.672 11.5007,19.0043 12.6928,20.6874 6.3114,10.8696 8.3452,13.5344 6.8724,9.3269 13.3239,13.5345 8.0648,5.4699 8.3452,5.6101 17.1109,16.3396 20.8978,21.529 7.9944,11.3605 9.8879,14.4461 18.5836,27.9104 20.4069,29.1727 3.366,4.1375 4.2076,5.2595 9.7475,8.5555 9.1165,14.1656-4.5582,6.5219-5.2596,6.7322-17.1109,2.1038-18.5836,2.1739-5.049-.3506-7.0126-.1406-6.592,1.1922-7.0829,1.1922-18.8641,1.6129-21.9496,1.9636-6.3815-.5611-7.2231-.7013-2.5946-.7714-2.2439-1.122-.2105-2.2441 1.3323-2.735 2.6648.1406 3.2259.1406 3.5063.3506 5.2594.07 7.3634-1.1921 7.9944-1.683 4.5582-2.174 5.2596-2.9453 5.6102-4.5583 7.5738-5.7504 4.7685-2.8752 5.4698-4.979 2.5947-4.9089-.6312-9.5373-15.4278-17.3914-26.2976-25.6663c-10.8696-8.275-21.038-20.5472-21.038-20.5472s-5.4698-6.8023-10.9398-10.3788-6.2413-5.0491-8.0646-6.1711-15.9888-14.3059-19.2848-17.1811-6.0309-4.6284-6.662-4.979-15.9888-7.3633-23.0718-15.9188-7.223-9.1164-9.3267-9.467-3.2961-1.052-3.1558-.1406 3.1558,12.9734 3.4362,14.0253 .491,4.9089.7013,5.2595-.7013,2.8051-.2807,3.0155 3.5063,7.784 3.7869,8.2048-.9117.561-1.4727-.7012-1.683-3.6466-1.8935-4.2778-.7011-1.2623-.7011-.7012 .9817,3.9972.9817,4.4179 .6311,2.3844.3506,2.735-1.1221,1.122-1.4025-.561-.5611-4.5583-.5611-5.4699 .07-2.1038-.1406-3.296-.1406-1.4025-.7714-2.5947-3.2959-8.7658-3.2959-10.0281-.6312-2.8752-1.1219-3.2959-.2105,2.805-1.6131,2.7349-2.5946-.3506-3.0855-2.2441-.2803-3.1557-1.5428-.3506-4.9791,11.01-5.8205,12.8332-3.7168,8.7659-11.2904,14.6565-8.7659,7.0127-9.2569,7.9945-2.3842,1.2622-1.8232,1.9635 1.4727,2.3142.07,2.3142-2.3142.07-2.174,1.5428 .8415,1.6129.5609,2.3843 1.8935,20.1965 1.7533,20.7575-1.5429.7714-1.4727-.561 .1402-2.8752.1402-4.0674-.6312-12.2722-1.7531-12.0618-7.714,5.2596-8.6958,5.5401-.3506,2.3843-.1406,2.805-.9115,2.5947-1.1921,1.6129 .07-1.122.1406-2.4544-.9817-1.7531-1.683-1.4727-11.5008,4.5583-14.7967,4.9791-5.6803,1.5427-8.0646,1.5427-11.7112.7013-12.693.7013-1.4726-.4209-2.1037.2807-2.8052.6311-1.8234,2.3142 3.0856,2.5246 3.3661,3.7868 4.979,4.6284-.4209,8.5555c0,0-.6312-.07-1.1219,2.1038s-.7014,1.9635-.9818,2.7349-.3506,2.5246-.3506,2.5246-2.1039,1.052-1.6129,2.3843 1.3323,1.122 1.6129,1.8935 2.805,2.8751-1.8935,3.9972-5.8906,1.8934-6.4517,3.0855-.561,2.0337-1.122,3.7869-1.3323,2.1038-2.0337,2.8051-6.4517,6.4516-6.4517,7.5736 1.5429,3.9973 1.7532,4.7687 1.8233,3.7167 1.8233,3.7167-.9818,2.2441-2.5245,2.8752-4.9791.3506-4.4881,1.6129-.4209,1.122-.2105,1.5428-3.1556-1.122-4.1374-1.8233-.5611-2.0337-2.6649-1.1921-2.8753.7713-3.296-.7013-2.805-2.0337-3.5064-1.7532-1.6129-.561-3.1557-1.7532 .3506,2.4545-2.6647,1.5428-1.8935-2.6648-4.2778-3.6466-3.7867.7013-5.9608-.7713-2.244-1.5428-4.1375-1.4026-1.8933.4909-2.8751.9116-20.4069,11.8515-23.3522,12.6229-4.418,1.0519-5.1192,2.244-2.0338,2.0337-2.174,3.0155 1.122,2.1739-3.2259,1.6129-4.7685-.2807-6.5919.2104-8.9762,2.244-10.5891,3.7167-2.0337,2.4545-4.1376,2.9454-4.2775,1.1921-7.6438.7713-4.488.2105-6.7321.1406-22.5968-1.2745-24.0843-1.2745 .6942-1.686.8925-2.0827-3.8678-.8925-4.8596-.7934-3.7686-.3965-4.7604-.4959-1.4875-1.2893-1.4875-1.2893 1.7851-.7933 4.9587-.595 5.8513,0 7.3389,0 6.4463-.595 8.1323-.9917 4.562-1.3885 5.8512-1.686 1.4877-.9917 3.8678-1.4876 4.5621-1.5868 6.6447-1.7851 4.3636-.9918 7.0413-.4959 3.1737.6942 5.2563-.6942 47.4053-27.0746 48.1987-32.6283 1.9834-6.3472.3965-7.9339 0,0 1.5867-4.7604 1.5868-9.1241 3.5703-11.1075 1.9835-3.5703 7.1406-5.9505 10.3142-5.9505 12.6942-7.5372 6.7439-3.1736 6.7439-3.1736-3.1735-1.1901-2.7769-5.1571 5.9505-10.7108 8.7275-15.8679 1.19-4.3636 2.7767-8.3305-1.1901-7.5373 3.5703-10.7109 8.3306-4.3636 10.7109-6.7439 17.0579-16.2645 22.6116-22.2149 9.5208-9.1241 13.4878-21.025 3.9669-13.8844 3.9669-15.8679-.7934-10.7108 3.1736-18.2481 9.9175-13.8844 11.5041-17.4546 4.3638-18.2481 4.7604-30.5456 1.5868-28.1656 1.9836-35.3061-.7934-13.8844-7.5372-31.339-6.3472-48.0004-5.9506-51.9674 .397-20.6282-.6325-20.2875z" fill="#003466"/>
  <path d="m2219.1-1067.6c-2.4779 0.2073-4.3246 4.1542-11.524 5.5941-8.8605 1.7721-15.192 9.1124-18.483 12.15s-4.0501 4.5406-4.0501 7.8316 1.253 4.0501 1.253 4.0501-0.9998 3.5618-1.253 5.8403-1.7831 6.0749-2.0362 8.1001-0.2532 4.8021 0 8.3463 2.5452-0.7537 3.5578-1.0068 1.0069 12.402 1.0069 15.44-1.7664 6.8397-1.0069 11.143 2.5337 21.504 5.5717 26.314 4.2905-2.5166 5.3031 4.3186-10.874 11.647-14.925 13.672-13.417 3.5368-16.961 4.2962-3.7996 0-5.5717 0-4.2989 1.0069-5.8178 1.0069-8.1116 0.50285-18.997 6.5786-11.391 17.737-12.15 22.041-7.0906 17.198-5.5717 24.793 1.5312 30.39 2.7971 40.769-0.52 34.941-3.5579 45.826-8.1015 38.463-8.861 45.804-3.0304 49.876-4.2962 57.977-1.014 9.6284-0.7608 13.426-0.01 7.8453 0.2458 11.389c0.2532 3.5443-1.7787 4.0444-3.804 5.057s-4.538 1.0306-6.3101 1.7901-13.428-0.26833-14.947-0.26833-1.5159 2.0222-2.5285 2.5285-3.0278 1.0249-2.7747 2.797 3.0177-0.51897 5.5494 1.2531 4.5774 2.0446 3.3116 2.5509-7.36-1.2715-10.651 1.0069 5.3212 3.5354 7.0933 3.5354 5.8205 0.25317 7.3394 0 6.598-1.0012 9.1295-2.0138 6.0693 0.23663 9.1072-1.0293 11.631-1.7677 13.403-1.7677 2.2806-2.5228 5.5717-3.5355 5.0763 0.50635 7.6079 0 9.1071 2.7747 9.1071 2.7747 5.8214 1.5247 12.15-1.0069 2.2701-3.2823-0.5146-3.5354-4.0471-9e-3 -6.5786-1.2755-8.0959-3.5521-9.8679-4.5647-7.3395-13.403-7.3395-13.403 0-5.5642 0.7608-9.8679-0.01-10.89-0.5146-15.193c-0.5063-4.3037 21.027-58.48 21.28-60.505s5.0666-15.958 6.3324-22.287-0.5063-11.391 0-21.011 1.7677-32.915 1.7677-32.915 2.5146 8.8719 3.0209 10.897 1.5312 4.047 2.797 6.5786 2.5215 26.071 2.7747 27.59-0.2477 5.0776-1.007 8.3687 1.0056 6.0596 0.2458 7.8317-0.4922 3.0432-0.4922 3.0432 1.5048 2.5268 0.4922 5.8178 1.0223 4.8136 1.2755 6.3325-0.7652 8.6139 1.0069 16.715 0.7691 22.015 1.2755 24.547 1.2587 5.3199 0.2462 6.3325-0.5089 7.3473-1.5216 11.904 3.8123 3.278 4.3187 5.3032 0.4949 3.8035 2.0138 7.8541 1.021 5.0566 0.5147 9.1071 3.2836 5.061 4.2962 7.3394 0 8.3652 1.5216 14.947 4.8192 9.6174 5.3255 11.39 4.5354 1.0104 17.7 7.3394 45.833 4.3187 53.681 4.3187 10.639-1.0223 20.765-1.2755 11.894-1.0183 18.729 1.007 32.401-4.8109 32.401-4.8109 2.5228-2.7777 3.5355-0.24582 1.0166 3.5324 2.2824 6.064 6.0859 0.76779 10.136 0.51466 6.325 0.50322 10.629 2.5285 11.635-3.5285 15.686-3.7816 7.0898-3.0489 13.672-2.0363 14.438 1.7831 17.476 2.0363 10.39-3.2976 14.947-3.804 6.3124-0.25455 11.882-0.7608 2.0407-3.7983 0.2684-4.8109-4.5547-1.0223-7.3394-1.2755-4.8289-3.2906-6.6011-4.0501-11.394-4.5424-9.6217-4.5424 5.5813-2.2837 6.8471-3.0432 14.172-15.695 14.679-16.961 1.7857-2.2863 3.5578-4.5648 1.7717-5.0482 4.0501-8.5925-2.292-13.424-3.5578-16.715-2.5215-6.089-2.7746-7.6079-6.0776-4.8035-9.6219-9.1072-22.779-4.8108-22.779-4.8108l-0.7608-1.2531s-0.7788-5.3167-2.5509-8.861 1.5286-23.295 1.2754-28.104-3.8039-16.704-3.8039-18.729-0.2376-8.3696 0.2683-13.18 1.5106-5.0636-0.5146-8.861-3.535-12.91-7.5855-21.011-1.7788-9.6143-3.804-13.918-4.0624-5.5769-6.8472-8.6149-9.3756-5.5716-10.271-5.7059c-0.8951-0.13417-2.1481-1.2083-2.1481-1.2083s-0.1346-1.6111-0.046-3.804-0.5818-7.3394-0.716-9.756-2.2824-11.054-2.5062-13.918-2.1928-8.9058-2.3718-9.5322-0.716-4.4753-1.0741-5.4151-0.5818-0.8503-0.8055-2.6851-1.5216-8.7267-1.9692-10.964-0.5817-6.6234-0.6265-7.9212c-0.046-1.2978-0.046-12.575-0.046-13.784s0.403-5.236 0.6713-5.9521-0.5818-1.2083-1.4321-3.8935-0.9846-7.2051-0.716-9.219 1.2978-9.577 1.5216-10.651 0.537-4.2067 0.716-4.7885 0.6713-2.2376 0.8055-3.983-0.2238-5.057 0-5.8178 0.5818-4.6095 0.6266-4.878c0.046-0.26833-0.09-2.0138 0-2.9089s-0.1792-3.625 0-5.1913 0.537-4.162 0.4922-4.8333c-0.046-0.6713 0-1.8349-0.1341-3.2669s-0.8056-2.5509-1.2979-2.8642-0.8055-0.089-1.2083-0.4475-0.3133-5.3702-0.2683-5.7283-0.046-1.5663-0.046-1.5663-0.358-0.8951-0.403-1.2531 0.089-1.7901-0.2238-2.1481-0.716-0.8951-0.8503-1.7006-0.089-1.2978-0.4922-1.8348-0.5818-0.358-0.3579-0.8504-0.1342-1.8348-0.3134-2.3718-1.2978-0.3134-2.3719-0.4923-1.2978 0.7608-1.7453 1.5216-1.7006 3.6249-1.7006 3.6249-0.537-0.8056-1.1636-2.1481-3.3116 0.9846-3.3116 0.9846-2.1482 2.8642-2.3272 3.8487-1.7006 3.3117-1.6111 4.3857-1.5216 6.4444-1.5216 7.3394-0.2683 3.5802-0.6265 5.2808-0.9846 2.1481-1.0741 4.1172 0.358 4.3858-0.1792 6.1759-2.1481 10.204-2.1481 12.173-1.9691 2.5061-1.9691 1.0741-1.074-10.025-2.3271-15.037-4.6542-4.6542-7.5184-5.0122-0.895 5.3703-0.895 7.8764 1.969 8.0554 2.3271 10.92 0.716 6.4443 0.716 6.4443-0.3579 4.6543 0.5371 8.2345 2.8641 9.1295 3.5801 10.562 2.8642 2.8642 3.5802 4.2962 2.5062 5.5493 3.4012 8.4135c0.895 2.8642 1.2531 8.2345 1.7901 10.204s0.358 21.123 0 26.135-2.1481 16.648-2.1481 16.648-0.716-0.89506-1.4321-2.3272-3.0432-9.8455-5.9073-17.006-2.1481-5.1913-11.636-18.617-26.314-11.278-26.314-11.278-4.6542-1.7901-12.531-1.253-15.216-5.0123-20.407-7.3394-5.0123-20.765-5.0123-20.765c-0.6559-2.3016 3.4039-14.459 4.9228-16.737s4.5406-4.8188 7.8317-9.3757 4.047-4.7977 6.5786-10.114 1.2715-5.3211-1.007-7.0933 0.014-4.5476-0.4922-7.5855-0.7762-2.0428-1.0293-5.8402 0.2642-1.7603 2.0362-6.0639-1.2781-5.5674-2.797-7.3394-0.2403-4.3016-1.2531-7.3395-2.7983-8.8636-3.5578-10.382-5.061-3.0318-7.3394-5.0571-6.0776-5.8402-9.6218-5.8402-6.0776-2.5298-9.6218-3.2893-3.542 1.5176-7.3394-0.7608c-0.712-0.4273-1.3077-0.5624-1.8796-0.5146zm73.461 200.65c1.0454 0.0855 0.5504 2.8461 1.5887 4.9228 1.2658 2.5316 8.3656 14.941 10.897 20.004s5.3032 3.5578 5.3032 3.5578-6.0736 4.5437-7.3394 5.3032-18.979 18.477-21.257 19.49-17.476 16.469-17.476 16.469-1.5172-0.24858-3.2893-1.7678 0-2.5491 0.7608-5.8402 3.0375-5.5546 4.0501-8.5925 5.0693-8.8676 7.854-12.665 4.3046-9.6104 4.8109-11.636 0.2335-4.3098 1.4993-7.8541 1.78-0.75772 4.5647-3.2893 2.7926-5.061 4.5647-7.3394 0.2505-8.8637 2.5285-10.383c0.2849-0.19022 0.5233-0.31474 0.7161-0.35793 0.085-0.0184 0.1539-0.0276 0.2238-0.023zm28.53 131.55c0.3478-9e-3 0.6642 0.20952 0.9174 0.716 1.0126 2.0253 3.2836 4.8162 4.2962 7.8541s-7.0959 3.5438-8.6148 4.0501-5.8095 0.51466-5.3032 0.51466c0 0 4.5591-4.8245 5.5717-8.3687 0.7595-2.6581 2.0884-4.7424 3.1327-4.7661z" fill="#003466"/>
  <path d="m850.99-978.81s1.6369-12.768 12.768-18.988 16.369-7.5298 25.536-11.786 16.369-6.5477 18.988-9.1668 18.333-11.786 31.429-10.804 33.72-0.3272 43.215 0 18.661-0.3272 25.863 1.3095 22.59 8.8393 37.649 9.1667 14.077 4.5833 14.077 4.5833 4.9108-6.5476 8.1846-3.2738 7.8572 7.2024 7.8572 7.2024 6.8751 5.2382 7.2025 6.5477 21.607 24.881 27.5 29.137 39.286 39.286 52.381 62.53 28.482 50.417 29.792 53.363 9.1667 6.2203-0.3272 29.792-14.732 33.066-15.06 38.304-1.3096 50.417-1.6369 55-1.637 51.726-1.637 51.726-5.238 8.1846-7.5297 8.8393 5.2381 2.9465 8.8393 4.9108 7.2024 3.6012 11.131 5.2381 5.5655 2.9464 8.512 2.9464 5.2381 0.32761 5.2381 1.6369v5.5655l-0.9821 2.9464s0.3271 4.256-2.2917 3.9286-1.3096 1.9643-5.8929 1.6369-1.6369 0.98218-8.1846 0.98218-14.405 3.6012-23.572 0.98213-12.113-2.9464-23.899-4.5834-23.899-2.2917-25.863-4.2559-6.5477-0.32715-6.5477-7.5298 0.6547-8.5119 1.6369-12.441-0.3276-7.2024 0.9821-7.8572 1.9644-3.6012 2.2917-7.5298 0.6548-25.536 0.6548-25.536-3.6013-0.98213-6.8751-0.32714-15.387 3.6012-18.333 3.2739-11.131-2.2917-9.8215-8.1846 1.9643-8.1846 1.9643-9.4941 1.3096-8.1846 1.9643-12.768 1.637-36.994 2.2917-41.578 2.2917-37.322 2.6191-41.25 2.2916-8.512 3.6012-11.131-0.6548-3.2738 1.3095-8.8393 3.2738-5.2381 7.2025-10.149 3.9285-5.8929 2.2916-11.131-2.2916-1.9643 0-6.2202-2.619-3.6012-5.5655-6.2202-18.661-19.643-23.899-25.208-5.5656-0.98218-8.8394-1.9644-4.9107-1.3095-10.476-2.2917-9.1668-2.2916-9.1668-2.2916-6.875-2.9464-9.1667 0.98213-2.9464 7.2024-7.8571 4.5834-9.1668-4.9107-10.476-6.2203-15.714-11.131-16.369-16.042 2.9464-6.8751-1.6369-8.8394-9.1667-5.8929-9.1667-5.8929-0.65475-3.6012-4.5833-0.98213-5.8929 4.9108-7.5298 4.256-5.8929 2.2917-5.8929 2.2917-1.9643-0.98213-4.256 0.32761-2.9464 5.8929-4.256 6.2203-4.256 3.2738-4.256 3.2738-3.2738 2.2917-6.2202 2.9464-6.2203 1.3096-7.2025 3.6012-3.2738 2.6191-3.2738 2.6191l-4.5834 6.875s-3.9286 1.9643-3.9286 3.9286-0.32715 2.9464-0.32715 4.5834 6.2203 8.5119 0 12.768-13.75 4.2559-13.75 5.5654 3.6012 3.6012 5.8929 4.5834 10.967 1.9643 12.768 4.2559-1.1458-1.8006-8.8394-1.4732 3.9286 0.98213 6.5477 3.1101-3.4376-1.1458-6.5477-0.49104 5.2382 1.9643 7.5298 4.2559 2.128 1.6369-1.1458 1.3096 0.49108 3.2739 1.8006 3.7649-0.81842-0.65476-3.7649-0.32715 0.98213 1.4732 1.9643 2.4554 1.4732 3.9286 3.2738 6.7114 0.98218 4.747 2.6191 6.3839 4.5834 9.9852 4.7471 15.387-0.81847 8.8393-0.6548 10.149-0.49104 4.4197 0 5.0745-0.32761 3.6012 1.9643 5.0744 4.5834 4.0923 4.5834 4.0923-2.4554-1.6369-5.2381-1.1458-0.49109 0.49104 0 1.8006 3.7649 3.6012-0.81846 3.4375-9.3304-1.4732-9.3304-1.4732 0.49109 0.98213-0.81847 2.7828 0.6548 1.6369 3.1102 1.6369 0 1.4732-3.2738 2.9464-4.7471 1.8006-2.7828 2.4553 7.5298 1.1459 7.5298 1.1459-4.0923 0.98213-6.7114 0.98213-6.0565-1.3095-4.9107-0.49109 4.256 3.1102 1.3096 3.2739-5.7292-2.4554-5.7292-1.1458 0 2.4554 0.98213 3.7649 0.49108 2.6191-2.7827 1.8006-6.0566-2.9464-4.5834-0.49104 0.49109 1.9643-2.4554 0.98213-3.7649-2.7827-4.7471-0.65475 0.49108 4.5834 2.6191 5.8929-3.2739-0.49109-6.2203-2.9464-5.0744-0.49109-3.9286 0.16358 6.2202 5.5655 2.9464 4.5834-5.7292-1.1458-4.747-0.49109 1.4732 6.7113-0.65476 4.256-3.6012-3.2739-5.2381-3.4375-6.384 0.65475-10.313-0.98213-5.8929-4.4197-8.8393-7.8572-4.256-5.5656-5.0744-6.7114-1.9643-0.32714-1.9643 1.4732-1.8006 15.387-1.8006 15.387-1.3096 5.2381-1.4732 7.8571-1.6369 15.387-1.8006 17.024 0.16358 5.4018 0.16358 5.4018 1.9643 2.4554 1.1458 3.2738-1.8006 3.6012-0.81847 5.0744 2.6191 4.256 2.2917 5.2381-1.4732 3.1102 0.32714 4.5834 0 3.4375 3.7649 3.9286 7.2024 0 9.003 0 6.2202 0.49105 8.1846 1.1458 8.512 0.6548 11.95 0.6548 6.384-0.49109 6.7113 0.65475 0.16357 2.9464-0.98213 2.9464 6.7113 2.9464 9.1667 2.9464 3.6012 0.6548 4.4197 1.4733 4.4197 1.8006 1.4732 3.6012 0.32761 4.747-3.2738 4.4197-15.223-0.49108-20.298-0.49108-7.0388-0.6548-8.6757-0.81847-7.2024-0.98217-6.384-0.65475 4.0923 3.4375 4.256 5.4018-0.16357 6.0566-3.4375 4.5834-5.8929-2.7828-8.6756-4.4196-5.0744-1.8006-8.0209-2.9464-10.804-0.81847-11.949-3.4375-1.3095 2.6191-1.3095 4.0923 2.4554 3.1101 1.3095 4.256-3.6012 0.98213-2.6191 3.7649 2.128 7.6935 1.9643 8.6757-1.8006 6.5476-0.98217 7.3661 1.8006 2.6191 3.6012 1.9643 0.81847-2.128 3.7649-1.4732 5.2381 0.32715 7.6935 0.16358 1.3096-1.8006 4.5834-0.16358 5.7292 0.32715 6.7113 1.1458 1.1458 0.65476 0.65475 2.9464-1.4732 3.4375-0.32714 3.6012 5.2381-0.65475 9.3304-0.32715 4.7471 0.32715 8.3483 1.1458 15.551 2.4553 16.533 3.2738-1.1458 4.0923-1.8006 4.0923 3.4375 1.6369 5.2381 2.4554 6.0566 2.7828 1.4732 4.0923-6.0565-0.32715-5.0744 1.3096 3.9286 4.4197-1.8006 4.4197-7.3661 0.32761-11.622-0.49109-7.2024-2.4554-10.967-1.9643-5.0744 0-5.0744 0 2.619 2.7828 4.747 3.6012 7.3661 2.2917 8.3483 3.2738 0.32715 5.2381-4.4197 3.7649-13.586-5.0744-16.697-5.7292-3.4375-0.81846-7.2024-1.4732-27.009 3.1102-33.884-5.0744-9.9852-6.875-9.4941-9.9852-0.32715-14.241 0.16357-17.515-1.4732-6.7113-0.65475-8.8393-0.32715-1.6369-0.16358-5.2381-1.4732-4.5834-1.1458-8.6756-2.9464-8.1846-2.4554-11.458 0.32715-5.0744 0.16358-7.3661-2.2916-14.896-0.98214-15.714 1.3096 0.32715 1.8006-3.4375-1.3096-24.554 4.7471-37.813 6.0566-22.426 7.0387-25.045 5.4018-14.896 4.5834-15.223-5.7292 0.16357-6.5477-1.8006 0-6.2203-0.65476-7.6936-0.81841-2.9464-0.98213-4.747-1.8006 0.16357-3.6012-2.128-3.2739-5.7292-3.9287-6.5476-7.5298-1.8006-4.5833-9.4942 7.6935-9.6578 9.9852-12.277 7.8572-7.6935 9.6578-10.476 4.747-9.1667 6.2202-12.604 4.0923-11.786 5.0744-15.06 1.9643-4.9108 2.2917-5.7292-1.6369-17.188-2.128-21.116 0.16357-18.988-0.81846-21.935-1.9643-3.6012-0.98218-6.2202 2.4554-4.9107 3.1102-5.7292 4.256-11.458 4.5834-11.131z" fill="#003466"/>
  <path d="m1659.8-1033.2c0 0.018 0 0.077 0.014 0.1944 0 0.028 0.014 0.079 0.014 0.1112 0.01-0.2183-0.018-0.3456-0.028-0.3056zm5.6542 0.1112c-0.014 0.01-0.018 0.088-0.056 0.25-0.052 0.2297-0.087 0.5435-0.097 0.9169 0.098-0.638 0.1765-1.1874 0.153-1.1669zm-0.153 1.1669c-0.2927 1.9082-0.976 5.8334-1.4031 7.488-0.6287 2.4361-1.5666 5.1871-2.4312 0.2362-0.8318-4.7639-1.5186-7.6184-1.6392-8.6688-0.023 0.6009-0.2523 1.8601-1.4309 2.6951-1.8861 1.336-4.1694 2.7542-5.1124 2.1255s0.4829-1.5794-1.4031-1.7365-3.8585 1.3392-4.4872 1.8893-1.3385-0.2394-1.417-2.1255-2.7483-0.6992-4.0843 1.9727-1.8894-2.1232-1.8894-3.4592 0-1.8082-0.625-0.4723-2.1256-0.7085-2.1256-0.7085-0.7793-0.081-1.4864 1.0975-0.8639 0.076-2.2783 1.0975 0.069 1.028-2.6813 1.028-3.6123 1.2606-3.8481 1.8893-1.7303 3.7644-3.4592 3.5287-2.8959 0.2472-3.9176 1.3475-0.6319 2.3494-1.8894 3.2925-1.8952 1.8922-2.6811 3.5425-1.7262 4.7164-1.0975 8.7243 2.3569 7.5356 2.2783 8.3214-1.8846 5.1104-1.806 6.6822 0.7133 7.696 0.7918 10.211-0.3147 3.6926-0.2362 4.7928 0.2344 3.8522-0.9446 6.2098-2.678 3.2307-0.7919 4.9595 2.5149 1.1778 2.7507 4.7928c0.2357 3.6149 1.0284 1.571 1.2642 2.2783s-0.083 1.9588-0.083 1.9588 0.7915 4.8739 0.5557 6.2099 0.3887 3.7791 2.9035 4.0148 9.5095-0.62989 11.003-0.70851 4.7095 0.47129 4.7095 2.5145 0.01 3.2226-0.028 2.9868c0 0 1.1114 5.7792-2.2228 5.557s-8.2242-2.4451-9.5578-2.2228-8.891-1.7782-14.67-0.88908-11.781 0.66683-16.893-1.1114-14.003-1.5559-18.004-4.2232-9.5579-4.2233-12.892-7.3351-5.5569-3.7787-10.892-5.557-9.3356-1.3336-11.336-2.8896-9.7801-2.6673-12.447-3.7786-5.5569-1.5559-8.2242-2.8896-3.3341-2.0005-6.0015-4.001-3.5564-1.5559-6.2237-2.445-3.3341-2.2228-5.7791-2.4451c-2.4451-0.22238-3.7787-0.88908-7.5574-1.5559s-5.5569-2.4451-5.5569-2.4451-0.8891 1.7782-3.7786 1.3337-7.1129-0.66688-8.4465-1.7782-5.7677-0.85889-7.1823 0.5557-1.1761 2.5903-1.0975 3.6119-0.2458 1.4265-0.6391 1.5837-1.2594 0.22974-1.1808 1.7226-0.071 2.1259-0.7779 2.3617-3.9245 4.3242-5.1818 6.446-4.092 6.9819-5.8209 8.9466-3.1508 4.484-4.251 5.3485-8.3973 6.6076-9.4189 9.0438-2.2835 3.3787-2.5979 5.029-3.1438 3.6907-0.2361 6.3626 5.505 4.0026 7.6269 4.9457 9.2653 5.8189 11.544 7.3906 3.8581 0.55109 4.251 3.223-3.3079 13.671-4.251 19.88-1.8788 11.631 1.5004 13.753 11.946 5.035 16.268 5.8208 7.2312 1.2464 8.7243 1.6393 16.267 5.2661 21.061 8.4881 24.126 15.246 26.562 16.268 25.223 14.625 27.423 15.254 12.257 5.9757 14.378 7.1546 23.891 11.079 24.284 12.572-0.4735 25.228-1.1808 27.507-1.8763 15.079-2.3478 18.379-0.5608 16.275-0.8752 18.004 1.4222 16.818 1.7365 21.769 1.729 17.286 2.7507 19.644 3.3003 5.0312 2.5145 8.9605-0.705 6.516-1.3337 9.5023-1.8115 22.092-2.3617 23.742-2.6725 16.183-2.9868 18.227-2.0416 8.0139-1.806 9.5856-1.0279 4.8734-1.0279 5.9736-1.8095 4.5646 1.5698 6.5293 1.7365 2.0422 1.7365 2.0422-5.0307 1.8858-5.9737 2.5145-3.1421 1.177-4.5566 1.5698-2.7562-0.15576-3.3064 0.70852-0.5453 2.0394 0.084 3.1396-0.082 1.8858 0.6251 2.5145 1.6548 1.4929 2.5979 2.5145-0.084 1.8894 2.1949 1.8894 2.3638 0.2279 3.5425 0.77789 1.6518 0.47758 3.4592 0.79191 2.3591 1.4162 6.2098 0.94463 7.9383-1.3388 11.239-1.6532 14.693-1.0931 17.129-1.2503 7.6931-0.16771 8.5576-3.3897 0.3152-4.3194 0.4723-6.3627 2.682-1.7219 3.1536-4.0009-4e-4 -4.7227-0.2362-7.0017-0.6386-8.8756-0.403-10.683-0.3055-13.599-0.3055-15.643-0.2362-15.874-0.2362-18.31-3.543-15.717-3.7787-21.297-2.4276-20.272-3.0563-21.922-2.0447-8.0948 1.806-16.268 3.6927-19.34 4.7928-20.519-0.2348-0.62838 0.4724-2.5145 1.6444-2.0335 1.9588-2.3478-1.1776-6.053 0.7085-6.446 1.4174-0.55335 1.6531-1.8894 3.1453-2.3515 3.6954-4.4733 0.3823-2.2097 1.8755-2.6812 0.4743-1.3297 1.6531-1.7227 1.6596-1.419 2.6812-2.5978 4.3125-4.2384 5.0984-4.9456 2.4388-4.1642 4.1677-7.5434 2.1192-3.1509 3.8482-4.2511 1.4976-1.8076 2.5978-2.7506 2.7472-1.6504 3.3758-2.7507 2.0433-2.1211 2.7507-2.2784 1.8891 0.1576 4.4038-2.5144 3.8482-3.5322 6.5988-5.6542 5.4204-5.5867 6.835-6.7655 3.6188-4.0833 4.8762-6.1265 1.2583-2.0371 3.223-4.4733 10.132-14.772 12.725-17.601 1.0236-6.5239 1.1808-8.7244-5.8126-18.864-6.3627-23.186-12.963-25.852-13.67-30.41-9.2798-14.306-11.794-17.921c-2.5147-3.615-11.242-10.223-13.128-14.309s-5.2552-6.2767-4.8624-10.127 1.024-4.2424 1.4171-4.5567 0.3101-1.4186 0.153-2.3617 1.1729-0.95134 1.9588 0.54177 0.633 9e-3 -0.153-2.195 2.2054 0.15576 2.8341 1.806 1.3354-3e-3 -0.2362-2.5978-1.0268-3.6147-0.3198-2.5145 1.1848 1.1041 0.7918-0.38871-0.01-1.1836 1.2503-0.0836 2.3641 1.89 1.0281-0.38917-0.083-2.5185 0.153-2.1255 5e-4 0.1599 0.2361-1.0975-1.9657-0.85462 2.0422-2.3478 3.3804-0.95539 0.7085-1.8199-1.4939-1.8798-0.4724-1.7226 5.1145-0.0809 6.2933-1.417-2.5203 1.2582-5.8209 0.47234 5.4192-0.86896 6.1265-2.5978-2.2745 1.6615-5.418 1.1114 6.3687-3.3902 7.1545-6.3765 0.4654-0.61832-3.5425 0.63904 2.8301-2.1999 3.223-5.029-0.1548 0.4621-3.8482 2.5839-1.3375-0.63109-0.9446-1.417 1.9636-2.4328 2.0421-3.3758-1.0237-4.7944-1.1808-5.7375-0.472-1.1754-0.2362-3.3758-0.078-4.0099 0.2362-6.446 0.7072-5.1874 0-5.7375 0.2435 1.808-0.7779 2.9868-0.9455 0.01-1.4171-1.7226-0.391 0.3832-1.5698-0.1668-1.6579-1.716-1.7365-3.2091-3.2203-6.1416-4.3205-6.8489-2.9873-2.8968-3.223-4.3899c-0.2045-1.2949-0.9394-6.3146-0.8752-8.7521zm-190.09 62.348c2.2005 0.15714 3.1468-0.0138 1.8894 1.4032-1.2574 1.4146-1.5813 3.1464-0.1668 4.4038s0.1691 3.6223 1.5836 4.251 2.9736 0.93159 5.9599 1.4031 10.225 0.47238 10.225 0.47238 1.5671 0.48268 2.6673 1.1114 1.5731 1.2503 3.4592 1.2503 0.1635-1.4173 3.7787 1.0975c3.6149 2.5148 4.8699 2.6776 6.5988 3.3063s2.1947 0.94717 4.7094 2.3617 4.4099 2.2001 5.1957 2.5145 2.1887 0.61809 3.9177 1.8755 2.99 2.84 4.8761 3.6259 4.4039 2.3478 4.4039 2.3478 3.3028 0.78313 3.9315 1.0975 2.3538 0.94551 3.1396 1.417 13.041 5.5116 16.184 6.1404 8.8039 3.4521 11.947 4.7095 26.405 11.939 29.549 12.253 7.0747-2.0408 6.4459 1.417-4.0859 7.7048-5.0289 9.9052-4.2426 6.599-2.0422 12.1 4.8762 8.641 4.8762 8.641 2.3462 1.8926 1.4031 3.7787-2.9868 2.3578-2.9868 5.5013 0.01 5.0227-1.7227 6.7516-9.5807-1.0912-14.767-2.8201-14.619-5.0314-16.976-6.446-3.615-2.3555-8.0158-4.0844-3.7758-3.3088-7.3906-4.7233c-3.6151-1.4145-6.7598-2.1931-11.475-3.7648s-5.6574-1.5766-7.5435-2.834-8.4895-6.2878-11.947-8.4882-2.3587-1.4151-5.9737-2.9868c-3.6149-1.5717-19.964-9.271-23.422-12.1s-3.4545-7.3895-6.1264-9.4328-15.084-8.1658-16.184-9.2661-1.4213-2.0429-1.2641-2.5145c0 0-1.1011-1.7305-0.4724-8.9604s2.9877-16.353 3.4592-19.81 1.1059-7.0616 3.3063-6.9045zm200.73 95.412c0.079 0.0809 11.61 11.946 10.044 17.115-1.5717 5.1867-5.1938 8.4903-6.7655 12.42s-6.4449 14.617-8.4881 16.032-5.3406 4.0919-6.1265 5.8208-1.4127 1.7284-1.5698-2.9868 1.4186-4.7236 2.3617-10.225 1.719-15.395 2.3477-16.81 4.5591-5.3523 5.9737-10.225c1.3703-4.7201 2.4427-10.768 2.2228-11.142z" fill="#003466"/>
  <path d="m2961.6-1016.8c-1.46-1e-3 -3.2035 0.037-5.3332 0.088-11.358 0.2839-13.628 4.1077-18.597 8.9347s-4.9669 12.642-5.9606 16.05-0.8507 4.3968-4.1161 11.921-5.3948 18.882-7.2405 23.993-2.982 11.784-2.698 16.753-0.7093 3.698-4.5426 3.8399-19.311 0.70342-20.731 1.1294-5.9585 1.8461-11.921 2.698-10.366-0.43099-23.002 1.9827-16.753 0.99385-21.722 0-8.3806-7.0976-12.072-9.0853-14.342-5.8217-23.002-7.6673-35.199-22.146-37.47-23.14-8.6619-2.5456-13.063-3.9654-2.7011 1.5607-4.4047 1.8447-3.2649-0.28533-4.5426-0.85334-0.8588-0.14611-1.5687-4.8312-3.3958-1.9812-5.3833-1.1294-0.7176 4.2479-1.9953 3.1121-2.559-3.1138-4.4045-1.694-1.1245 1.5629-3.1122 3.1246-0.7174 2.1291-1.9952 4.5427 0.5721 2.1284-2.4094 4.116-2.2736 3.6884-3.5514 5.534-4.1221 4.1165-5.2578 6.814-2.9771 16.188-4.6806 18.459-6.8099 7.8093-9.2234 14.908 3.2591 6.5273 6.0987 10.077 8.9434 6.3925 16.326 9.3739 14.904 16.886 17.744 21.571 17.756 24.57 17.756 24.57 2.9735 1.9847 0.2762 5.534-9.0881 26.128-5.8226 29.251 27.551 9.508 40.896 16.891 18.598 10.216 21.295 13.339 15.894 5.4026 24.696 9.2358 4.8341 2.5536 1.5687 3.6894-10.083 2.6915-21.157 3.8273-18.883 7.387-22.149 9.8006-35.92 8.0868-38.901 8.7967-6.2391 0.71357-12.486 2.1333-21.58 4.4022-28.962 5.396-23.289-1.8413-24.708-4.6807-14.056-15.62-14.908-16.188-0.9899-2.2742-0.1374-3.9779 1.8406-6.2483 1.9825-8.094-0.9936-2.7002 0-3.978-0.136-3.9668-1.1292-4.8188-1.8508-0.99481-2.9867-5.3959-5.1103 0.42088-6.8139 1.9827-3.5533 9.9386-7.1025 17.179-0.1416 7.8142 0.4264 12.925 8.5191 15.041 7.6672 21.998-3.4001 15.909-0.7027 24.144 13.345 1.9898 19.024 1.28 11.205-5.8305 20.292-5.5466 46.574 3.2666 49.982 3.1246 5.398-0.13601 8.9473 1.1419 57.07-6.5293 68.002-6.3873 17.75-1.7074 28.398-2.1333 31.23-1.7042 41.31-2.698 14.336-0.85012 21.86-1.418 16.895 0.13969 31.66-1.28 24.703-14.057 26.265-15.335 2.4721-6.2744 4.2792-7.2783 1.0037-4.4172 2.0076-6.2242 1.4055-4.8187 1.4055-9.2359 1.2047-2.4094 3.0117-9.8382-1.7505-7.1737-0.6149-16.828 0-11.357 0-11.357c5.1111-1.5617 1.5575-6.2443 2.4094-8.232s-1.1382-5.536 0.9913-9.0853 1.8441-3.7021 1.4182-8.6712 1.2781-12.056 2.6979-14.895 2.7033-2.9856 3.4132-4.8313-1.1428-0.99307 0.7027-6.814 0.7098-15.766 2.2713-18.321 1.8494-2.5558 2.1334-4.9693-2.698-3.9651-2.698-6.2367 3.2615-8.9542 7.3787-10.516 9.2329 0.70962 22.01 2.2713 25.556-2.2666 32.087-1.9827 14.623-5.9638 19.024-5.396 6.2458-0.7121 9.0852-1.28 9.7952-1.7027 16.326-1.8447 36.204-7.5181 38.901-8.37 5.3978-0.99527 8.9472-0.85329 11.495-1.1356 14.193-2.2713 3.8294-1.5607 7.3787-1.8447 6.54-2.1377 7.8178-4.6932-2.4232-0.84787-5.5465-0.13784-4.5331 0.28855-6.2368 0.28855 2.8376-1.5654 3.6894-2.1332 9.0782-4.1229 9.7879-5.6846-0.9913-1.418-0.9913-1.418 2.556-2.2664 2.6981-4.254-2.1207-0.42639-2.1207-0.42639 0.7098-2.7042 0-3.8399-4.4012-0.42593-7.2407 0-7.955 2.1301-9.8007 2.698-4.8238 0.70989-7.8052 0 1.7049-3.6923 3.1247-5.3959 4.3896-4.9605 5.3832-7.09-0.5589-5.9696-2.1206-3.8399-2.6947 4.6893-3.2626 4.8312-2.4224 1.5644-5.1199 3.9779-4.119 3.5479-5.8226 6.3873-7.0967 9.2256-10.93 10.503-8.088 1.5661-19.162 2.5599-16.611-2.8382-23.993-4.116-10.514-0.28257-16.476 3.1247-27.959-0.43466-30.657-0.15071-12.21 0.57058-21.722-3.2627-33.083-1.1419-35.639-1.1419-3.129 0.43191-5.6844 1.1419-1.985-1.9913-3.2628-2.1333-2.8414-1.1308-3.5513-1.9827 0.1415-1.5582 1.4181-2.836 4.1275-4.5518 5.9732-7.3913-0.1429-5.8224-0.4264-8.0939-0.4337-4.8239 0.2762-7.8053 0.2872-5.3911-0.5648-7.3787-1.1287-3.5488-0.7027-4.5427 1.9867-5.3982 1.8448-6.6759 0.4195-2.4121 1.1292-6.3873 0.4245-7.6695-3.1245-16.188-14.908-10.502-19.451-12.348c-3.6912-1.4997-4.6653-2.0647-10.993-2.0706zm-220.92 59.23c0.6715 0.0928 0.3891 5.8428 1.6312 6.5881 1.4199 0.85182-0.2825 3.1229 3.1247 4.5427s16.476 0 16.476 0 2.2631-1.4232 7.0901 2.836 40.037 32.943 53.382 36.918 15.336 5.1039 20.73 7.9433 29.252 5.6784 36.918 4.5427 17.888-3.9762 21.295-5.396 7.0979-0.28258 6.8139 0.85329c-1.4196 1.1358-1.7003 15.052-2.836 18.459s-5.6861 22.998-6.5379 25.838 0.5633 6.2473-0.2886 9.9386-1.131 8.2399 0.2886 7.9559 0.8595-1.1407 1.9952 1.9827 4.2491 3.1278 6.2368 2.5599 2.2792-3.7007 1.9952-0.57724 1.7003 3.4133 2.8361 3.4133 1.4211 0.57081 0.8534 1.7066-1.1357 4.2523-2.2715 5.672-5.6845 5.6846-5.6845 5.6846-5.6702-1.1432-9.3615-4.2666-30.665-15.326-35.776-20.153-11.079-6.5344-14.77-9.3739-16.184-6.5251-21.295-8.7967-8.8027-4.2585-12.21-6.814-18.176-10.232-21.584-12.787-40.886-28.676-47.133-37.195-9.9389-8.5208-7.6674-20.731 4.2603-19.019 5.3961-21.007c0.1415-0.24858 0.2555-0.35242 0.351-0.33909z" fill="#003466" stroke="#000" stroke-width=".40156"/>
  <path d="m2870.2-1765.4c-0.6046-0.028-0.8066 0.3727-0.4364 1.4835 0.9873 2.9618 0.6508 5.2774 1.309 6.9228s1.6679 8.0425 1.8325 10.675-1.3289 16.641-1.658 18.122-0.6573 12.488 0.4945 17.918 1.9697 12.5 2.7924 19.081 1.3189 12.501 1.4835 14.311-1.4661 31.764-2.6179 37.523-4.7721 27.969-5.7594 31.589-3.9484 9.7278-5.2648 11.373-9.0719 13.323-7.0974 19.576 7.4182 14.633 7.9118 15.62 12.346 29.47 13.991 31.938 6.5864 12.319 8.2319 15.446 13.15 17.94 14.631 19.75 4.453 6.9171 5.9339 9.2207 1.1543 1.1561 1.4834 2.4725-0.8461 4.2676-2.327 5.0903-5.0903 1.338-5.0903 1.338-0.9724-9.8772-2.6179-8.2318-1.338 9.1917-1.338 9.1917-5.9082 1.6472-7.8827 0.989-15.136-6.5846-15.795 9.5407 16.434-1.6289 16.434-1.6289l-1.3089 7.2428s-13.818 13.164-14.806 16.784-8.5444 13.16-9.8607 14.806-4.6175 8.566-5.9339 11.199-2.6396 6.5846-3.9559 7.2428 0.989 10.53 0.989 10.53-10.501-3.2287-12.362-3.2287-27.924-10.704-29.553-10.704-24.434-7.9119-25.364-8.6099-10.704-1.3963-16.289-4.1887-7.2137-2.5597-8.6099-5.3521-5.3521-4.4213-8.3772-8.6099-3.9559-1.8616-3.0251-6.7483 6.2829-10.006 6.5156-11.635 1.8082-6.2703-0.989-4.6249-4.9449 6.4284-4.9449 6.4284 1.3155 0.5036-0.4945 0.1746-3.9633-3.8039-2.6469-5.6139 3.128-9.3728 0.9889-7.5628-4.2567 3.9577-4.4213 4.9449-1.4834 1.1344-1.4834 1.1344-1.1445-0.8096-1.309-3.6068-2.1542-6.0916-3.1414-1.978-1.1636 7.2537-1.1636 7.9118-0.9598 4.2759-0.9598 4.2759-2.327-0.6756-2.327 1.1344v15.3s2.4676 2.1485 5.2648 5.4394 12.181 16.281 13.991 17.103 3.1284 1.1561 6.7484 2.4725 35.87 13.995 38.832 15.969 2.3025 5.4345 10.53 8.2317 17.449 5.9248 21.234 6.2539 26.334 11.026 32.258 23.532 1.3078 23.669 11.839 30.251 12.497 12.533 11.839 15.824-5.9122 23.033-4.5959 31.589 5.9299 36.85 9.2208 40.141 24.345 0.6507 34.876 1.3089 29.621 1.309 40.81 1.309 7.8851-0.6582 20.39 0 13.06 3.8395 12.944 1.8616-1.978-3.2579 1.0471-3.6069 12.217 2.6761 14.893 2.2107 3.8396-0.9309 3.6069-1.629 2.6761-1.3961 0.1163-2.0943-4.4213-0.8144-7.3301-1.5125-3.3742-2.6761-6.7483-2.9088-14.311-2.327-17.918-3.0251-15.242-3.1414-19.198-3.9559-4.0723 0.1163-7.2138-0.1162-25.481-2.9088-29.437-3.8396-19.663-3.3742-21.874-3.4905-1.8616-28.04-1.6289-29.786 3.0251-11.17 4.305-11.751 1.5125 3.2579 1.7452 3.9559 2.6761 3.7233 2.9087 5.4685-0.4654 5.1194-0.2329 7.0974-0.9308 5.7011 2.327 5.3521 6.981-1.6289 8.1445-1.1635 3.3742 3.1415 5.7011 4.305 2.6761 4.1886 4.305 4.654 10.239-3.4906 10.821-3.8396 1.0471-1.3962 4.8867-0.1162 4.0722 2.4433 9.1917 0.1162 7.0973-3.7232 11.286-3.3742 8.959-2.0942 10.588-4.5376 6.1666-19.896 6.632-23.386 5.2357-16.522 1.8616-22.921-2.7924-8.4936-2.5597-11.751-4.5377-9.1917-7.6791-10.937-6.632-3.2578-17.569-5.0031-11.635 0.4654-13.497 1.7453-4.7703 2.676-8.3772 2.5597-9.0753-0.5818-10.82-1.978-7.3301-9.1917-9.1917-11.635-1.8616-25.132-1.3962-29.902 1.2798-19.43 1.2798-19.43-1.5125 0.9308 3.1415-2.9088 7.5627-7.0973 10.937-6.8646 12.333 2.4433 23.619 0 19.43-8.2609 22.805-10.937 9.1916-6.9809 17.802-7.5627 17.569 0.9308 23.619 0.2329 17.802-2.7924 20.943-3.6068 11.17-0.6982 12.566 0.5817-5.9338 12.915-5.4684 31.647 2.4433 37.116 2.4433 39.675 1.6289 17.802-1.8616 20.594-8.7262 5.1195-9.4243 8.0282-1.3962 7.5628 2.2106 12.333 9.4244 11.053 13.031 17.918 6.8647 8.959 6.632 11.635 0.4654 5.9339 1.6289 6.8647-2.6761 2.7923-1.1635 3.4905 2.4434 1.7452 2.7924 2.676 1.2798 1.7453 1.7452 1.8616c-0.2848-5e-4 -2.087-0.058 0 2.327 2.4434 2.7925 5.8176 5.4685 7.7955 4.5377s0.4654-2.5597 0.3492-5.2357 1.1635-8.8427 1.1635-11.17 2.7924-20.361 1.6289-27.342-0.9308-9.1917-0.9308-11.868-0.9308-23.27-0.5817-26.412 2.9087-24.666 3.9559-29.669 4.4213-23.154 5.5848-27.808 6.981-20.245 7.6791-27.459 4.5377-19.082-2.327-25.248-7.9118-9.5408-18.732-12.333-52.125-8.1445-67.018-7.6791-32.811 1.0472-37.232-0.8145-11.17-8.0281-17.453-16.871-15.242-16.871-18.151-20.594-20.245-26.179-27.924-33.043-15.824-11.868-13.497-22.688 7.4464-23.503 7.7955-26.528-0.3492-23.154-1.6289-26.062-2.4434-19.896-3.0251-25.83-0.6982-23.27 3.3741-27.808 12.113-9.1862 6.4575-13.584c0 0-10.381-9.0539-14.166-13.497s-7.4082-11.364-7.7373-17.452-2.3113-9.2233-4.4504-10.704-2.6147-7.8953-6.3993-9.5408c-2.3653-1.0284-4.49-2.2497-5.4975-2.2979zm10.181 293.81c2.1522-0.059 4.0866 0.461 4.2177 0.4945-0.044 0.3818 2.5306 6.4866-2.2688 6.0503-5.1194-0.4654-6.5157 6.981-7.4465-0.9308-0.5235-4.4504 2.6343-5.5352 5.4976-5.614z" fill="#003466" stroke="#000" stroke-width=".9308"/>
  <path d="m2931.7584-2383.1695c-.2375,0-.4782.096-.7413.3349-1.0523.9567-1.148,5.1658-2.2003,7.4617s-4.7831,12.6274-6.6963,17.2192-4.6875,15.593-6.6007,18.1759-4.4961,11.0968-5.3571,11.6708-15.7843,23.7243-17.2192,35.9691c-1.435,12.2448-1.5307,21.0457-2.2003,23.8199s-2.3916,22.4807-2.1046,26.9768 1.0523,22.0024.861,25.3505 .096,4.3049 1.1479,6.6008 2.1046,4.1134 2.009,11.5751-.1912,20.7588.8609,25.4462 1.5306,12.4361 2.1046,16.7409 .2871,5.4528.096,6.8877c-.1912,1.435-.7653,6.8877-1.3393,8.801s-1.2436,5.7397-1.4349,6.3137-.861,6.2181-2.5829,8.8009-3.2525,5.2615-3.5395,6.4094-4.1135,11.4795-5.4528,13.5841-1.3393,1.0523-3.4438,2.9655-38.839,21.237-49.0748,29.177-29.3684,20.4718-29.3684,29.751-5.7397,13.4884 4.2092,16.454 22.385,4.7831 30.5163,3.2525 28.9857-6.1224 33.6731-7.2704 14.0624.2872 16.2626-1.1479c2.2003-1.4349 6.3138-.9566 8.4183-1.1479s7.366-.2872 7.7487-.096 8.1313,1.6262 9.3749,9.7575 3.8265,15.306 2.7742,18.6542 .1911,5.6441-1.5306,8.0356-1.6262,3.9222.2872,4.4962 2.3915.5739 2.7742,3.7308 2.1046,15.2103 2.0089,18.4628-1.8176,17.1236-3.0612,22.4807-.096,14.2537-.096,14.9233 .096,15.306-.7653,18.4629-1.7219,18.0802-3.7308,21.9067-1.0523,4.9744-1.3393,6.4093c-.2872,1.435-.1911,7.8444-2.1046,9.1836s-3.5395,3.7309-2.7742,5.3572 2.4872,2.0088 4.0178,2.2002 8.0357,2.1045 10.2359,2.5829 6.4094,1.2436 7.366.1911 .861-1.148-.3827-4.4961-1.9133-6.1224-1.0523-9.6619 1.0523-7.5573 2.2002-12.9145 4.2091-15.306 5.3571-18.7498 3.4439-4.2091 3.2525-6.792 6.5051-20.6631 6.5051-25.1592 2.2002-23.4373 1.0523-27.2638 3.7308-20.1848 4.1134-22.672 14.2538-43.6221 15.7843-48.2138 4.1135-20.2805 3.9222-27.5508 .3827-22.0024.2872-24.2026-1.5306-13.7754-2.1046-18.2715-.3828-8.3226-.3828-10.5229-.4783-7.5573-.2871-8.6096-.7653-5.1658-.096-7.079 1.7219-14.445 2.3916-17.5062 2.6785-17.6976 3.7308-21.4284 3.2525-6.6964 3.5395-13.1058 .861-9.6619 1.0523-10.8098 4.6874-7.1747 4.4005-10.9055-1.2436-10.1403-1.3393-11.3839 .3828-23.0546-.9566-28.89-4.5918-20.9501-5.3571-25.9245-2.2002-13.8711-2.7742-14.5407c0,0-10.7142-25.6375-16.6453-35.0125-5.9311-9.3749-10.1402-25.5418-11.1925-30.9946s-3.0612-13.7753-3.2525-17.4105-.3827-7.0791-1.5306-6.5051c-.861.4306-1.5112-.3349-2.2242-.3349zm.1912,14.6124c.3202-.023.6098.2812.7892,1.0284 .574,2.3916-1.2436,7.8443-1.2436,7.8443-.096-.096-.574-2.8699-.861-5.4527-.1971-1.7758.6112-3.3737 1.3154-3.42zm-1.5784,23.3655c.032,0 .06.014.072.048 .1911.574-.3828,2.2003 2.0089,5.4528s6.1224,10.7142 6.8877,13.2014 6.9833,18.1759 7.1746,21.2371 6.9834,20.5674 7.4617,23.3416 .096,4.4005-1.2436,3.5395-5.5484-6.9833-6.5051-7.8443-6.1223,1.148-11.0011-1.7219-8.7053-1.8176-11.8622-.861-9.2792,6.4094-11.0011,11.0969-4.1135,9.5662-4.1135,9.5662c-.096.1911-1.148-1.9133-1.6263-3.3482s0-8.4183.3828-10.4272-.096-3.6352 1.2436-6.6007 4.2092-16.7409 5.0701-19.4195 7.8443-25.1592 8.9923-27.8377 2.6785-3.5395 3.9221-4.4005c1.1659-.8071 3.6704-4.9771 4.1374-5.0223zm-21.6915,82.1262c.454-.098 1.5306,2.1883 1.8655,4.1135 .3827,2.2002-.3828,3.5395.3827,6.1224s1.3392,7.94 2.3915,7.4617 .7653.3827.6697,2.8699 .574,1.7219 2.3915,3.9221 2.6786,4.2092 3.7309,7.5573 .3827,3.4439-1.5306,6.3137-2.2959,4.2092-2.2959,4.5919c-.096,0-2.9656-4.1135-3.0612-4.5919s-2.8699-6.8876-2.9655-7.4616-2.2003-3.7308-3.4439-8.227-.1911-8.9922 0-12.4361 1.4349-9.0879 1.7219-10.0445c.037-.1195.079-.1774.1434-.1912zm45.7266,3.6831c.075-.0006.1613.018.2394.048 1.2436.4783.9566,4.2091.9566,6.6007s2.2003,14.3493 1.722,16.5496-2.0089,2.4872-3.4439,5.644c-1.4349,3.1569-4.8787,11.3839-4.8787,11.3839 .096.096-.7654-.4783-1.722-1.0523s-4.3048-8.4183-4.3048-8.4183 .6697-4.0179.7653-5.5484 3.5395-3.7309 4.4005-4.8788 1.0523-3.5395 1.6263-5.0701 0-2.8699 0-3.8265 1.0522-1.8176 1.0522-2.8699 1.0523-3.2525 1.3393-4.3048c.2692-.9865 1.1172-4.2479 2.2481-4.257zm-41.0152,194.2664c.4007.059.8998.8908 2.5111,2.9416 4.2092,5.3571 1.5306,8.4183 1.5306,8.4183l-6.1224.7653c0,0-11.4794,2.2959-20.663,2.6785s-6.5051-3.0612-4.9745-4.9744 14.9234-3.0612 22.1937-6.1224c4.0896-1.722 4.7786-3.4593 5.3571-3.683 .056-.023.1103-.032.1672-.023z" fill="#003466" stroke="#000" stroke-width=".7653"/>
  <path d="m2282.6-2202.1c-4.5296 0-15.619 1.4057-21.867 1.0933s-19.524-0.4685-24.366 0.9372-34.83 29.052-39.672 31.863-15.15 12.027-16.712 13.12-29.676 27.333-33.269 30.145-43.89 21.867-54.823 32.8-13.276 14.526-15.775 15.932-27.958 26.552-40.922 34.362-11.246 6.56-14.057 8.7467-5.7791 2.6552-2.9677 8.1219 3.9048 13.432 11.87 9.9962 10.309-10.152 15.775-15.775 16.556-13.432 18.899-14.994 58.415-37.33 64.819-40.922 10.465-0.3125 14.994-4.061 15.307-11.402 19.524-14.526 39.829-19.524 44.046-21.398 11.558-8.4343 11.87-4.3734-1.8743 7.341-3.5924 10.777 0.1562 6.56-3.28 7.1848-20.93 2.4991-27.646 6.0914-14.057 6.2477-15.307 9.8401-3.4362 16.244-2.6553 19.992 2.0305 29.208 2.9676 34.987 2.6553 10.152 0.1562 12.495-4.3733 4.2171-2.3428 6.56 2.0304 5.1543 9.059 5.6229 14.213-0.1562 16.556-3.4362 0.9371-6.4039-1.7181-8.4343-5.9353-1.5619-6.2476-7.8096 1.718-29.52 2.499-33.893 2.0305-11.402 3.28-13.589 14.37-1.718 15.775-3.28 9.8401 4.2172 15.932 1.8743 10.309-4.2171 14.526-3.5923 11.246 2.6552 11.402 6.0914 1.5619 4.5295-1.0934 7.4971-5.6228 5.9353-6.2476 7.1848-2.0305 1.2496-2.0305 3.9048 1.4057 5.1543 1.4057 8.5905-0.3124 8.9029-0.9371 9.8401-0.781 4.8419-0.4686 6.56-1.4057 2.8114 7.4972 9.6838 21.242 7.4972 24.991 5.6229 14.057-9.2153 14.994-12.183-2.1867-12.183-1.0934-15.619 0.9372-10.309-1.8742-16.088-3.5924-11.87-3.1238-14.37-0.781-7.9658 4.8419-8.5905 8.7467-2.0305 17.025 2.499 18.118 1.4057 19.524 1.2495 6.0915 2.3429 9.3715 3.4362 7.1848-1.7181 8.1219 2.4991-0.4685 8.9029-1.2495 13.745-3.5924 27.021-4.6857 30.301-4.061 6.0915-7.0286 6.8725-2.6553 2.6552-7.8096 1.8743-9.0591 0.9371-7.8095 2.8114 8.1219 5.6228 12.183 6.2476 15.932 1.5619 19.055 1.0934 3.5924-0.3125 5.4667-5.3105 1.7181-13.12 3.28-17.65 4.3733-17.806 5.7791-22.648 5.3104-23.272 3.9047-28.271-0.3124-5.4667-7.4972-9.9962-16.4-6.7162-22.96-9.0591-14.37-3.4362-14.057-9.84-2.1867-9.8401 2.499-6.56 10.152 10.152 18.587 12.808 47.17 26.24 53.105 31.238 24.991 19.212 28.271 20.617 37.173 24.991 39.048 26.709 0.6248 2.0305 1.2496 6.56 2.6552 7.0286 5.779 8.9029 12.339 7.1848 13.276 11.714 7.9657 3.1239 10.777 1.0934 0.4686-14.37-0.7809-18.274-14.37-11.87-16.712-14.838-37.174-42.172-50.918-52.324-20.617-14.213-22.804-16.556-28.895-21.242-34.674-29.52-19.368-19.836-20.93-21.71-18.899-12.183-21.554-18.899-15.619-21.398-38.423-21.398z" fill="#003466"/>
 </g>
</svg>
